<svg width="503" height="404" viewBox="0 0 503 404" fill="none" xmlns="http://www.w3.org/2000/svg">
<path d="M335.443 91.0432C326.535 92.9097 310.654 99.544 318.391 111.15C328.062 125.657 373.875 89.5162 348.169 72.9729C327.604 59.7382 309.059 81.2021 302.357 93.5884C293.601 81.1682 260.702 79.0812 245.346 79.5902C232.967 79.9911 222.627 83.9984 214.041 90.2653C210.005 93.211 206.357 96.6559 203.067 100.46C201.179 102.643 199.409 104.945 197.752 107.338M318.391 111.15C318.521 113.507 318.796 116.562 319.249 120.058C322.285 143.473 322.527 182.498 326.536 200.484C337.989 251.386 335.698 286 245.346 286C207.678 286 133.971 283.964 136.415 230.007C137.233 211.937 140.945 188.013 176.373 172.742C176.752 167.083 177.639 160.356 179.156 153.144M197.752 107.338C185.62 105.385 161.826 96.411 174.846 70.6822C185.535 49.5578 208.187 78.0535 214.041 90.2653M197.752 107.338C193.071 114.097 189.286 121.59 186.271 129.22M203.067 100.46C197.588 92.7006 194.283 89.4486 188.08 85.4441" stroke="#415FF5" stroke-width="6.1083" stroke-linecap="round"/>
<circle cx="168.737" cy="218.554" r="8.65343" stroke="#415FF5" stroke-width="6.1083"/>
<circle cx="277.16" cy="224.408" r="8.65343" stroke="#415FF5" stroke-width="6.1083"/>
<path d="M260.395 13.446C227.026 -9.43113 144.519 61.5198 168.443 52.6119C187.583 45.4855 205.093 58.296 211.456 65.592C231.002 55.2079 282.719 53.8845 304.607 71.9549C313.515 66.6101 337.032 57.8549 359.837 65.592C388.342 75.2635 320.714 4.07123 279.228 16.2743M268.284 12.0363C266.96 11.9925 265.603 12.1081 264.212 12.3989C262.938 12.6653 261.665 13.0169 260.395 13.446C239.331 20.5602 219.297 51.5099 211.456 65.592M268.284 12.0363C269.279 12.0693 270.255 12.1924 271.212 12.3989C274.053 13.0123 276.726 14.362 279.228 16.2743C292.817 26.6593 301.542 56.1832 304.607 71.9549M268.284 12.0363L269.557 4" stroke="#415FF5" stroke-width="6.1083" stroke-linecap="round"/>
<path d="M212.988 64.8272C233.233 55.3172 281.598 54.3683 303.502 71.0777C303.882 71.3674 304.426 71.034 304.33 70.5661C301.038 54.5071 292.427 26.3617 279.228 16.2743C276.726 14.362 274.053 13.0123 271.212 12.3989C270.255 12.1924 269.279 12.0693 268.284 12.0364C266.96 11.9925 265.603 12.1081 264.212 12.3989C262.938 12.6653 261.665 13.0169 260.395 13.446C240.05 20.3177 220.664 49.4276 212.3 64.0947C212.049 64.5354 212.529 65.0429 212.988 64.8272Z" fill="#415FF5" stroke="#415FF5" stroke-width="6.1083" stroke-linecap="round"/>
<path d="M262.5 29.9999C260.863 34.0389 259.696 40.6903 259.5 46.5" stroke="#F9F9EF" stroke-width="9" stroke-linecap="round"/>
<path d="M252 37C258.294 38.1931 266.5 39 269.5 39" stroke="#F9F9EF" stroke-width="9" stroke-linecap="round"/>
<path d="M160.817 125.993C169.081 125.014 181.383 124.285 194.506 124.922C208.282 125.592 223.217 127.781 235.368 132.939C236.867 132.36 238.772 132.087 240.614 131.96C242.642 131.821 244.913 131.84 247.133 131.974C249.354 132.109 251.583 132.363 253.53 132.714C255.394 133.05 257.255 133.517 258.595 134.177C275.854 128.914 303.201 128.09 334.772 140.657C336.711 141.429 337.886 143.421 337.618 145.494L336.592 153.444C336.355 155.275 335.043 156.785 333.263 157.275L331.906 157.648C331.638 163.956 327.95 170.572 322.718 175.92C317.121 181.641 309.354 186.35 300.742 188.072C292.057 189.808 282.545 188.487 273.774 182.165C265.151 175.948 257.514 165.092 251.92 148.235C251.844 148.188 251.752 148.136 251.643 148.081C251.269 147.889 250.761 147.687 250.123 147.495C248.845 147.109 247.225 146.817 245.488 146.685C243.754 146.553 241.992 146.588 240.433 146.807C239.11 146.993 238.07 147.296 237.338 147.645C227.045 168.535 209.944 178.972 194.007 177.943C177.95 176.905 164.435 164.343 161.155 142.142L158 141.037C156.079 140.363 154.834 138.501 154.942 136.468L155.263 130.479C155.378 128.323 156.994 126.482 159.22 126.192L160.817 125.993ZM275.896 138.018C274.289 137.507 272.571 138.395 272.059 140.002L268.497 151.201C267.986 152.808 268.874 154.526 270.481 155.038C272.088 155.549 273.806 154.66 274.317 153.053L277.881 141.854C278.392 140.247 277.504 138.529 275.896 138.018ZM287.169 138.042C285.575 137.491 283.835 138.335 283.283 139.929L280.993 146.546C280.441 148.14 281.286 149.88 282.88 150.432C284.473 150.984 286.213 150.138 286.765 148.544L289.056 141.927C289.607 140.334 288.762 138.594 287.169 138.042ZM181.218 131.4C179.61 130.889 177.892 131.777 177.381 133.384L173.818 144.582C173.307 146.19 174.196 147.908 175.803 148.419C177.41 148.931 179.127 148.042 179.639 146.435L183.202 135.236C183.713 133.629 182.825 131.911 181.218 131.4ZM192.49 131.424C190.896 130.873 189.156 131.717 188.604 133.311L186.314 139.928C185.763 141.522 186.607 143.262 188.201 143.814C189.795 144.366 191.534 143.52 192.086 141.926L194.377 135.309C194.928 133.715 194.084 131.976 192.49 131.424Z" fill="#415FF5"/>
<path d="M293.079 119.326C283.432 123.115 284.964 110.996 287.279 104.63C287.543 103.904 288.338 103.535 289.025 103.889C294.19 106.55 301.311 116.092 293.079 119.326Z" fill="#415FF5"/>
<path d="M278.083 110.621C271.789 107.941 277.731 103.017 281.893 100.909C282.583 100.559 283.408 100.858 283.606 101.606C284.638 105.505 283.428 112.897 278.083 110.621Z" fill="#415FF5"/>
<path d="M152.936 387.864C149.224 387.864 146.216 386.904 143.912 384.984C141.608 383.064 140.456 379.64 140.456 374.712C140.456 371.512 140.84 368.312 141.608 365.112C142.44 361.912 143.464 358.936 144.68 356.184C145.96 353.368 147.304 351.096 148.712 349.368L149.288 352.056C143.848 350.904 139.368 349.432 135.848 347.64C132.328 345.784 129.704 343.704 127.976 341.4C126.312 339.032 125.48 336.472 125.48 333.72C125.48 330.328 126.152 327.416 127.496 324.984C128.904 322.488 130.728 320.568 132.968 319.224C135.208 317.88 137.64 317.208 140.264 317.208C144.552 317.208 147.976 319.32 150.536 323.544C153.096 327.768 154.728 333.4 155.432 340.44H155.816C157.032 334.616 158.664 329.944 160.712 326.424C162.824 322.84 165.128 320.248 167.624 318.648C170.184 316.984 172.712 316.152 175.208 316.152C179.304 316.152 182.472 317.624 184.712 320.568C187.016 323.448 188.168 327.064 188.168 331.416C188.168 335.064 187.016 338.328 184.712 341.208C182.408 344.024 179.112 346.392 174.824 348.312C170.536 350.168 165.384 351.448 159.368 352.152L160.232 350.328C161.704 352.504 163.048 354.968 164.264 357.72C165.48 360.472 166.44 363.256 167.144 366.072C167.848 368.824 168.2 371.416 168.2 373.848C168.2 378.392 166.792 381.88 163.976 384.312C161.16 386.68 157.48 387.864 152.936 387.864ZM193.641 391.512C189.993 391.512 187.209 390.424 185.289 388.248C183.369 386.136 182.409 382.296 182.409 376.728C182.409 374.232 182.665 371.48 183.177 368.472C183.689 365.4 184.457 362.2 185.481 358.872C186.569 355.48 187.881 352.024 189.417 348.504C190.953 344.984 192.745 341.496 194.793 338.04C197.225 333.944 199.593 330.648 201.897 328.152C204.265 325.592 206.729 323.736 209.289 322.584C211.913 321.432 214.857 320.856 218.121 320.856C222.345 320.856 226.089 322.52 229.353 325.848C232.617 329.176 235.209 334.04 237.129 340.44C238.089 343.576 238.889 346.904 239.529 350.424C240.169 353.88 240.649 357.4 240.969 360.984C241.289 364.504 241.449 367.96 241.449 371.352C241.449 377.944 240.265 382.648 237.897 385.464C235.529 388.216 232.201 389.592 227.913 389.592C224.329 389.592 221.481 388.632 219.369 386.712C217.257 384.792 215.977 381.592 215.529 377.112C215.273 374.68 215.145 372.184 215.145 369.624C215.145 367 215.273 364.504 215.529 362.136L221.577 371.256C219.977 371.768 217.961 372.088 215.529 372.216C213.097 372.344 210.569 372.28 207.945 372.024C205.385 371.768 202.985 371.288 200.745 370.584L209.289 361.368C209.161 364.504 208.937 367.576 208.617 370.584C208.297 373.592 207.881 376.312 207.369 378.744C206.857 381.496 206.057 383.832 204.969 385.752C203.881 387.672 202.409 389.112 200.553 390.072C198.761 391.032 196.457 391.512 193.641 391.512ZM212.841 357.336C215.721 357.336 217.993 356.44 219.657 354.648C221.385 352.792 222.249 350.392 222.249 347.448C222.249 346.168 222.089 344.984 221.769 343.896C221.513 342.808 221.065 341.848 220.425 341.016C219.849 340.184 219.081 339.544 218.121 339.096C217.225 338.584 216.169 338.328 214.953 338.328C213.545 338.328 212.265 338.68 211.113 339.384C209.961 340.088 208.969 341.016 208.137 342.168C207.305 343.32 206.665 344.6 206.217 346.008C205.769 347.416 205.545 348.792 205.545 350.136C205.545 352.184 206.217 353.912 207.561 355.32C208.905 356.664 210.665 357.336 212.841 357.336ZM261.276 314.904C263.836 314.904 266.204 315.512 268.38 316.728C270.556 317.88 272.636 319.896 274.62 322.776C276.668 325.656 278.748 329.656 280.86 334.776C283.036 339.896 285.372 346.392 287.868 354.264H288.252C287.996 352.472 287.74 350.52 287.484 348.408C287.292 346.296 287.1 344.152 286.908 341.976C286.716 339.736 286.556 337.592 286.428 335.544C286.364 333.496 286.332 331.608 286.332 329.88C286.332 325.08 286.972 321.592 288.252 319.416C289.596 317.24 291.452 316.152 293.82 316.152C296.7 316.152 299.164 317.752 301.212 320.952C303.324 324.152 304.924 328.664 306.012 334.488C307.164 340.248 307.74 347.096 307.74 355.032C307.74 361.752 307.42 367.256 306.78 371.544C306.14 375.832 304.828 379 302.844 381.048C300.924 383.096 298.044 384.12 294.204 384.12C292.284 384.12 290.492 383.8 288.828 383.16C287.228 382.52 285.66 381.368 284.124 379.704C282.588 377.976 281.02 375.544 279.42 372.408C277.884 369.272 276.252 365.24 274.524 360.312C272.796 355.32 270.908 349.24 268.86 342.072H268.476C268.924 343.544 269.34 345.304 269.724 347.352C270.108 349.336 270.428 351.448 270.684 353.688C271.004 355.928 271.228 358.168 271.356 360.408C271.548 362.648 271.644 364.696 271.644 366.552C271.644 372.76 270.716 377.208 268.86 379.896C267.068 382.52 264.252 383.832 260.412 383.832C254.972 383.832 251.068 381.528 248.7 376.92C246.396 372.312 245.244 365.176 245.244 355.512C245.244 347.704 245.564 341.176 246.204 335.928C246.844 330.68 247.836 326.52 249.18 323.448C250.524 320.376 252.188 318.2 254.172 316.92C256.22 315.576 258.588 314.904 261.276 314.904ZM327.628 318.744C330.124 318.744 332.396 319.32 334.444 320.472C336.556 321.56 338.572 323.48 340.492 326.232C342.476 328.984 344.492 332.792 346.54 337.656C348.588 342.52 350.828 348.696 353.26 356.184H353.644C353.26 354.392 352.876 352.376 352.492 350.136C352.172 347.896 351.884 345.656 351.628 343.416C351.372 341.112 351.148 338.968 350.956 336.984C350.828 334.936 350.764 333.208 350.764 331.8C350.764 326.296 351.66 322.328 353.452 319.896C355.244 317.4 357.804 316.152 361.132 316.152C363.628 316.152 365.644 316.728 367.18 317.88C368.716 318.968 369.964 320.632 370.924 322.872C372.46 326.264 373.516 330.904 374.092 336.792C374.732 342.616 375.052 349.336 375.052 356.952C375.052 363.672 374.732 369.176 374.092 373.464C373.452 377.752 372.3 380.92 370.636 382.968C368.972 385.016 366.572 386.04 363.436 386.04C361.452 386.04 359.564 385.752 357.772 385.176C355.98 384.6 354.22 383.512 352.492 381.912C350.764 380.248 348.972 377.88 347.116 374.808C345.26 371.672 343.276 367.608 341.164 362.616C339.052 357.56 336.748 351.352 334.252 343.992H333.868C334.444 346.04 334.956 348.568 335.404 351.576C335.916 354.52 336.3 357.592 336.556 360.792C336.876 363.928 337.036 366.808 337.036 369.432C337.036 376.024 336.044 380.728 334.06 383.544C332.076 386.296 329.004 387.672 324.844 387.672C320.428 387.672 317.26 386.232 315.34 383.352C313.484 380.408 312.556 375.928 312.556 369.912C312.556 367.032 312.62 363.8 312.748 360.216C312.94 356.568 313.164 352.824 313.42 348.984C313.74 345.08 314.124 341.368 314.572 337.848C315.34 331.576 316.684 326.84 318.604 323.64C320.524 320.376 323.532 318.744 327.628 318.744Z" fill="#415FF5"/>
</svg>
