<svg width="290" height="300" viewBox="120 0 270 296" fill="none" xmlns="http://www.w3.org/2000/svg">
<!-- Halo arrière-plan -->
<circle cx="251" cy="160" r="150" fill="#415FF5"/>
<!-- Corps / oreilles -->
<path d="M335.443 91.0432C326.535 92.9097 310.654 99.544 318.391 111.15C328.062 125.657 373.875 89.5162 348.169 72.9729C327.604 59.7382 309.059 81.2021 302.357 93.5884C293.601 81.1682 260.702 79.0812 245.346 79.5902C232.967 79.9911 222.627 83.9984 214.041 90.2653C210.005 93.211 206.357 96.6559 203.067 100.46C201.179 102.643 199.409 104.945 197.752 107.338M318.391 111.15C318.521 113.507 318.796 116.562 319.249 120.058C322.285 143.473 322.527 182.498 326.536 200.484C337.989 251.386 335.698 286 245.346 286C207.678 286 133.971 283.964 136.415 230.007C137.233 211.937 140.945 188.013 176.373 172.742C176.752 167.083 177.639 160.356 179.156 153.144M197.752 107.338C185.62 105.385 161.826 96.411 174.846 70.6822C185.535 49.5578 208.187 78.0535 214.041 90.2653M197.752 107.338C193.071 114.097 189.286 121.59 186.271 129.22M203.067 100.46C197.588 92.7006 194.283 89.4486 188.08 85.4441" stroke="#ffffff" stroke-width="6.1083" stroke-linecap="round"/>
<!-- Taches / spots -->
<circle cx="168.737" cy="218.554" r="8.65343" stroke="#ffffff" stroke-width="6.1083"/>
<circle cx="277.16" cy="224.408" r="8.65343" stroke="#ffffff" stroke-width="6.1083"/>
<!-- Chapeau contour -->
<path d="M260.395 13.446C227.026 -9.43113 144.519 61.5198 168.443 52.6119C187.583 45.4855 205.093 58.296 211.456 65.592C231.002 55.2079 282.719 53.8845 304.607 71.9549C313.515 66.6101 337.032 57.8549 359.837 65.592C388.342 75.2635 320.714 4.07123 279.228 16.2743M268.284 12.0363C266.96 11.9925 265.603 12.1081 264.212 12.3989C262.938 12.6653 261.665 13.0169 260.395 13.446C239.331 20.5602 219.297 51.5099 211.456 65.592M268.284 12.0363C269.279 12.0693 270.255 12.1924 271.212 12.3989C274.053 13.0123 276.726 14.362 279.228 16.2743C292.817 26.6593 301.542 56.1832 304.607 71.9549M268.284 12.0363L269.557 4" stroke="#ffffff" stroke-width="6.1083" stroke-linecap="round"/>
<!-- Chapeau rempli -->
<path d="M212.988 64.8272C233.233 55.3172 281.598 54.3683 303.502 71.0777C303.882 71.3674 304.426 71.034 304.33 70.5661C301.038 54.5071 292.427 26.3617 279.228 16.2743C276.726 14.362 274.053 13.0123 271.212 12.3989C270.255 12.1924 269.279 12.0693 268.284 12.0364C266.96 11.9925 265.603 12.1081 264.212 12.3989C262.938 12.6653 261.665 13.0169 260.395 13.446C240.05 20.3177 220.664 49.4276 212.3 64.0947C212.049 64.5354 212.529 65.0429 212.988 64.8272Z" fill="#ffffff" stroke="#ffffff" stroke-width="6.1083" stroke-linecap="round"/>
<!-- Croix sur le chapeau -->
<path d="M262.5 29.9999C260.863 34.0389 259.696 40.6903 259.5 46.5" stroke="#F9F9EF" stroke-width="9" stroke-linecap="round"/>
<path d="M252 37C258.294 38.1931 266.5 39 269.5 39" stroke="#F9F9EF" stroke-width="9" stroke-linecap="round"/>
<!-- Lunettes -->
<path d="M160.817 125.993C169.081 125.014 181.383 124.285 194.506 124.922C208.282 125.592 223.217 127.781 235.368 132.939C236.867 132.36 238.772 132.087 240.614 131.96C242.642 131.821 244.913 131.84 247.133 131.974C249.354 132.109 251.583 132.363 253.53 132.714C255.394 133.05 257.255 133.517 258.595 134.177C275.854 128.914 303.201 128.09 334.772 140.657C336.711 141.429 337.886 143.421 337.618 145.494L336.592 153.444C336.355 155.275 335.043 156.785 333.263 157.275L331.906 157.648C331.638 163.956 327.95 170.572 322.718 175.92C317.121 181.641 309.354 186.35 300.742 188.072C292.057 189.808 282.545 188.487 273.774 182.165C265.151 175.948 257.514 165.092 251.92 148.235C251.844 148.188 251.752 148.136 251.643 148.081C251.269 147.889 250.761 147.687 250.123 147.495C248.845 147.109 247.225 146.817 245.488 146.685C243.754 146.553 241.992 146.588 240.433 146.807C239.11 146.993 238.07 147.296 237.338 147.645C227.045 168.535 209.944 178.972 194.007 177.943C177.95 176.905 164.435 164.343 161.155 142.142L158 141.037C156.079 140.363 154.834 138.501 154.942 136.468L155.263 130.479C155.378 128.323 156.994 126.482 159.22 126.192L160.817 125.993ZM275.896 138.018C274.289 137.507 272.571 138.395 272.059 140.002L268.497 151.201C267.986 152.808 268.874 154.526 270.481 155.038C272.088 155.549 273.806 154.66 274.317 153.053L277.881 141.854C278.392 140.247 277.504 138.529 275.896 138.018ZM287.169 138.042C285.575 137.491 283.835 138.335 283.283 139.929L280.993 146.546C280.441 148.14 281.286 149.88 282.88 150.432C284.473 150.984 286.213 150.138 286.765 148.544L289.056 141.927C289.607 140.334 288.762 138.594 287.169 138.042ZM181.218 131.4C179.61 130.889 177.892 131.777 177.381 133.384L173.818 144.582C173.307 146.19 174.196 147.908 175.803 148.419C177.41 148.931 179.127 148.042 179.639 146.435L183.202 135.236C183.713 133.629 182.825 131.911 181.218 131.4ZM192.49 131.424C190.896 130.873 189.156 131.717 188.604 133.311L186.314 139.928C185.763 141.522 186.607 143.262 188.201 143.814C189.795 144.366 191.534 143.52 192.086 141.926L194.377 135.309C194.928 133.715 194.084 131.976 192.49 131.424Z" fill="#ffffff"/>
<!-- Petits détails -->
<path d="M293.079 119.326C283.432 123.115 284.964 110.996 287.279 104.63C287.543 103.904 288.338 103.535 289.025 103.889C294.19 106.55 301.311 116.092 293.079 119.326Z" fill="#ffffff"/>
<path d="M278.083 110.621C271.789 107.941 277.731 103.017 281.893 100.909C282.583 100.559 283.408 100.858 283.606 101.606C284.638 105.505 283.428 112.897 278.083 110.621Z" fill="#ffffff"/>
</svg>
