<?xml version="1.0" encoding="UTF-8"?>
<!-- Generator: visioncortex VTracer 0.6.12 -->
<svg version="1.1" xmlns="http://www.w3.org/2000/svg" width="1254" height="1254">
<path d="M0 0 C2.062 2 2.062 2 3 5 C2.824 11.484 1.287 17.881 -0.145 24.18 C-0.25 24.647 -0.25 24.647 -0.784 27.012 C-1.229 28.97 -1.677 30.928 -2.128 32.886 C-2.815 35.884 -3.479 38.887 -4.143 41.891 C-4.579 43.8 -5.017 45.709 -5.457 47.617 C-5.652 48.514 -5.847 49.411 -6.048 50.335 C-7.498 56.467 -7.498 56.467 -9.94 59.059 C-13.131 60.516 -15.549 60.431 -19 60 C-21.438 58.562 -21.438 58.562 -23 56 C-23.755 49.563 -22.489 43.333 -21.102 37.074 C-21.004 36.619 -21.004 36.619 -20.511 34.317 C-20.1 32.409 -19.684 30.502 -19.265 28.596 C-18.623 25.681 -17.998 22.762 -17.375 19.842 C-16.972 17.982 -16.569 16.122 -16.164 14.262 C-15.978 13.392 -15.791 12.522 -15.599 11.626 C-15.419 10.814 -15.239 10.003 -15.053 9.167 C-14.898 8.457 -14.742 7.747 -14.582 7.015 C-13.722 4.038 -12.813 1.657 -10.375 -0.312 C-6.762 -1.358 -3.579 -1.145 0 0 Z " fill="#415FF5" transform="translate(816,173)"/>
<path d="M0 0 C2.438 2.125 2.438 2.125 4 5 C4.2 8.602 3.918 10.866 1.605 13.723 C0.437 14.881 -0.761 16.01 -1.984 17.111 C-3.8 18.813 -5.384 20.543 -6.984 22.445 C-11.604 27.779 -16.539 32.797 -21.507 37.802 C-22.594 38.901 -23.676 40.003 -24.753 41.11 C-26.329 42.728 -27.916 44.332 -29.508 45.934 C-29.985 46.428 -30.462 46.923 -30.954 47.433 C-33.822 50.282 -35.904 51.815 -40 52 C-43.486 50.378 -44.843 49.235 -47 46 C-47.111 41.224 -45.969 38.58 -42.895 35.09 C-41.549 33.691 -40.187 32.307 -38.812 30.938 C-38.097 30.202 -37.382 29.466 -36.645 28.708 C-34.447 26.455 -32.227 24.224 -30 22 C-29.33 21.328 -28.66 20.656 -27.969 19.964 C-22.963 14.95 -22.963 14.95 -20.695 12.73 C-17.39 9.481 -14.367 6.13 -11.479 2.502 C-7.895 -1.138 -4.822 -1.507 0 0 Z " fill="#415FF5" transform="translate(877,210)"/>
<path d="M0 0 C11.395 7.748 18.641 20.377 21.344 33.781 C23.541 50.197 19.621 65.552 9.547 78.777 C5.311 83.585 0.736 87.85 -4.242 91.875 C-0.964 95.902 2.458 99.57 6.221 103.153 C18.685 115.133 27.802 129.1 34.758 144.875 C35.289 146.043 35.82 147.211 36.367 148.414 C41.46 160.673 43.536 173.659 46.103 186.629 C49.265 202.297 53.765 215.748 65.758 226.875 C66.489 227.558 67.22 228.241 67.973 228.945 C74.948 234.349 82.292 234.917 90.786 235.823 C117.47 238.681 139.637 249.054 158.758 267.875 C159.477 268.57 160.196 269.265 160.938 269.98 C181.721 291.557 188.474 322.563 188.297 351.495 C187.793 371.442 183.235 389.857 174.758 407.875 C174.439 408.552 174.121 409.229 173.793 409.927 C162.081 434.263 143.607 455.941 122.516 472.676 C119.663 474.95 116.903 477.314 114.133 479.688 C100.586 490.971 85.597 500.405 70.758 509.875 C70 510.366 69.242 510.858 68.461 511.364 C68.104 511.593 68.104 511.593 66.293 512.754 C65.659 513.163 65.025 513.573 64.371 513.994 C62.758 514.875 62.758 514.875 60.758 514.875 C61.184 515.4 61.611 515.924 62.051 516.465 C107.64 572.958 128.89 639.05 135.758 710.875 C135.853 711.796 135.948 712.717 136.046 713.666 C136.992 723.995 137.014 734.352 137.053 744.717 C137.065 746.88 137.085 749.043 137.115 751.207 C137.157 754.358 137.173 757.509 137.184 760.66 C137.201 761.627 137.219 762.593 137.237 763.589 C137.215 770.216 137.215 770.216 134.95 773.482 C131.715 775.537 129.504 775.41 125.758 774.875 C123.169 772.852 121.931 771.602 121.162 768.378 C121.119 767.444 121.076 766.509 121.031 765.547 C120.975 764.481 120.92 763.416 120.862 762.318 C120.828 761.182 120.793 760.046 120.758 758.875 C120.721 757.734 120.684 756.592 120.646 755.416 C120.578 752.968 120.519 750.52 120.468 748.071 C118.866 673.856 103.5 595.468 55.981 536.397 C54.839 534.976 53.708 533.547 52.578 532.117 C50.459 529.507 48.66 527.602 45.758 525.875 C40.97 526.988 36.698 529.323 32.324 531.505 C12.074 541.581 -9.118 549.123 -31.242 553.875 C-32.217 554.085 -33.191 554.296 -34.195 554.512 C-62.51 560.309 -94.896 560.677 -123.242 554.875 C-124.244 554.671 -125.246 554.467 -126.278 554.257 C-140.648 551.235 -154.581 547.261 -168.242 541.875 C-168.619 541.727 -168.619 541.727 -170.524 540.978 C-192.536 532.149 -212.045 519.146 -229.242 502.875 C-230.148 502.033 -231.055 501.191 -231.988 500.324 C-249.669 483.379 -249.669 483.379 -250.242 471.875 C-248.742 468.938 -248.742 468.938 -246.242 466.875 C-242.805 466.25 -242.805 466.25 -239.242 466.875 C-235.873 469.909 -233.083 473.242 -230.305 476.812 C-197.924 516.49 -150.143 534.082 -100.59 540.336 C-56.339 544.639 -10.434 534.689 28.731 513.939 C30.851 512.826 32.986 511.749 35.125 510.676 C54.68 500.765 73.088 488.824 90.758 475.875 C91.033 475.676 91.033 475.676 92.426 474.667 C104.152 466.165 115.142 456.719 125.758 446.875 C126.42 446.267 127.083 445.658 127.766 445.031 C147.076 426.581 160.883 402.551 167.758 376.875 C168.077 375.769 168.397 374.663 168.727 373.523 C173.308 355.072 172.489 333.968 166.758 315.875 C166.549 315.191 166.34 314.506 166.125 313.801 C159.696 293.267 146.358 274.997 127.164 264.726 C69.958 235.483 -21.634 255.286 -80.109 274.035 C-118.986 286.923 -156.079 306.977 -175.492 344.688 C-178.827 351.393 -181.186 358.258 -183.234 365.449 C-185.936 374.631 -185.936 374.631 -189.242 376.875 C-193.152 377.555 -194.788 377.155 -198.18 375.062 C-201.251 370.316 -200.117 366.302 -199.242 360.875 C-198.44 357.402 -197.4 354.057 -196.242 350.688 C-195.933 349.782 -195.624 348.876 -195.306 347.943 C-182.396 311.635 -150.894 285.937 -117.055 269.688 C-86.984 255.847 -54.657 248.673 -22.242 242.875 C-23.16 242.643 -24.078 242.411 -25.024 242.172 C-28.44 241.308 -31.854 240.439 -35.267 239.567 C-36.743 239.191 -38.219 238.817 -39.696 238.444 C-41.822 237.907 -43.946 237.364 -46.07 236.82 C-47.348 236.496 -48.626 236.171 -49.942 235.836 C-56.403 233.954 -56.403 233.954 -58.555 231.188 C-59.616 227.618 -59.291 225.452 -58.242 221.875 C-52.708 216.432 -46.332 212.762 -39.617 208.938 C-38.55 208.326 -37.483 207.714 -36.383 207.084 C-34.281 205.882 -32.176 204.683 -30.07 203.488 C-27.707 202.14 -25.364 200.768 -23.027 199.375 C-21.923 198.736 -20.818 198.096 -19.68 197.438 C-19.225 197.17 -19.225 197.17 -16.926 195.816 C-13.362 194.566 -10.883 195.035 -7.242 195.875 C-5.242 197.438 -5.242 197.438 -4.242 199.875 C-3.841 204.854 -3.841 204.854 -5.242 207.875 C-8.221 210.5 -11.718 212.086 -15.242 213.875 C-17.392 215.068 -19.529 216.282 -21.666 217.498 C-24.848 219.308 -28.046 221.09 -31.242 222.875 C-27.872 224.33 -24.777 225.248 -21.152 225.805 C-20.203 225.961 -19.254 226.117 -18.275 226.277 C-16.3 226.592 -14.323 226.899 -12.346 227.199 C-6.748 228.133 -2.436 228.909 1.758 232.875 C2.406 236.015 2.406 236.015 2.758 238.875 C3.472 238.789 4.186 238.704 4.922 238.615 C29.9 235.636 29.9 235.636 40.121 235.086 C42.733 234.877 45.202 234.443 47.758 233.875 C47.106 232.978 46.453 232.081 45.781 231.156 C44.898 229.896 44.015 228.636 43.133 227.375 C42.706 226.794 42.279 226.212 41.84 225.613 C33.985 214.241 31.014 200.88 28.772 187.481 C24.479 162.183 16.684 140.569 -0.242 120.875 C-0.517 120.533 -0.517 120.533 -1.91 118.805 C-6.698 113.005 -12.327 108.484 -18.242 103.875 C-19.112 103.166 -19.982 102.457 -20.879 101.727 C-56.837 73.309 -104.554 60.335 -149.867 60.562 C-150.258 60.564 -150.258 60.564 -152.234 60.569 C-192.181 60.745 -234.368 70.9 -268.242 92.875 C-269.026 93.762 -269.81 94.649 -270.617 95.562 C-273.242 97.875 -273.242 97.875 -276.742 98.5 C-280.095 97.901 -281.83 97.383 -284.07 94.801 C-286.229 91.253 -287.458 87.314 -288.867 83.422 C-294.692 68.397 -303.27 55.827 -317.961 48.523 C-329.418 43.727 -340.552 43.68 -352.242 47.875 C-363.007 53.109 -369.389 60.472 -373.516 71.613 C-377.129 82.862 -376.218 95.134 -370.836 105.613 C-362.614 119.634 -349.358 128.016 -333.992 132.562 C-329.825 134.021 -328.216 134.927 -326.242 138.875 C-326.242 142.689 -326.392 144.899 -328.93 147.812 C-331.242 148.875 -331.242 148.875 -334.121 148.656 C-337.242 148.875 -337.242 148.875 -339.445 150.754 C-341.746 153.771 -344.035 156.788 -346.242 159.875 C-346.634 160.41 -347.026 160.946 -347.43 161.498 C-380.329 206.779 -389.742 262.695 -381.808 317.309 C-379.464 332.088 -376.633 346.828 -372.885 361.316 C-370.885 369.279 -370.885 369.279 -372.242 372.875 C-375.826 377.062 -379.942 380.45 -384.242 383.875 C-384.697 384.245 -384.697 384.245 -386.996 386.117 C-388.766 387.557 -390.539 388.992 -392.316 390.422 C-396.388 393.836 -400.257 397.45 -404.121 401.095 C-406.95 403.762 -409.804 406.364 -412.766 408.883 C-418.689 414.038 -424.192 419.639 -429.741 425.189 C-431.667 427.112 -433.6 429.027 -435.533 430.941 C-441.842 437.222 -447.869 443.525 -453.37 450.536 C-455.312 452.963 -457.369 455.231 -459.492 457.5 C-465.908 464.562 -471.549 472.229 -477.242 479.875 C-477.779 480.592 -478.316 481.309 -478.869 482.048 C-491.602 499.123 -503.063 517.003 -513.113 535.785 C-514.195 537.788 -515.309 539.77 -516.434 541.75 C-539.544 583.033 -556.065 635.3 -543.059 682.246 C-538.035 699.205 -529.653 714.408 -518.242 727.875 C-517.909 728.284 -517.909 728.284 -516.223 730.352 C-511.187 736.321 -505.417 741.121 -499.242 745.875 C-498.389 746.544 -497.535 747.213 -496.656 747.902 C-438.297 792.154 -354.365 790.174 -285.402 780.848 C-228.899 772.73 -139.82 758.313 -100.242 713.875 C-97.625 710.143 -96.242 707.217 -96.242 702.625 C-97.453 699.294 -98.276 697.853 -101.242 695.875 C-106.106 695.204 -109.341 695.747 -113.852 697.609 C-114.289 697.79 -114.289 697.79 -116.504 698.703 C-119.193 699.854 -121.864 701.035 -124.531 702.234 C-124.971 702.431 -124.971 702.431 -127.195 703.426 C-128.989 704.231 -130.778 705.046 -132.562 705.871 C-138.091 708.318 -142.187 709.502 -148.242 708.875 C-150.742 707.312 -150.742 707.312 -152.242 704.875 C-152.805 701.375 -152.805 701.375 -152.242 697.875 C-148.116 693.682 -142.972 691.949 -137.617 689.812 C-100.308 674.287 -100.308 674.287 -93.43 659.309 C-91.809 654.623 -91.992 652.643 -93.242 647.875 C-95.827 645.267 -97.527 644.014 -101.152 643.309 C-114.268 643.325 -123.946 649.185 -135.224 655.198 C-152.701 664.481 -152.701 664.481 -160.242 663.875 C-162.615 662.079 -163.888 660.606 -165.18 657.938 C-165.273 654.846 -164.061 653.321 -162.242 650.875 C-158.515 647.539 -153.941 645.838 -149.43 643.812 C-120.705 630.527 -120.705 630.527 -115.066 618.332 C-114.037 615.264 -113.84 613.094 -114.242 609.875 C-116.295 606.111 -117.789 605.05 -121.805 603.5 C-138.7 600.295 -155.018 610.547 -169.602 617.66 C-176.148 620.847 -182.745 623.912 -189.367 626.938 C-190.356 627.39 -191.344 627.843 -192.363 628.309 C-194.986 629.506 -197.613 630.691 -200.242 631.875 C-200.589 632.035 -200.589 632.035 -202.342 632.847 C-206.789 634.858 -209.479 635.313 -214.242 633.875 C-216.742 631.688 -216.742 631.688 -218.242 628.875 C-218.43 626 -218.43 626 -217.242 622.875 C-215.812 621.359 -215.812 621.359 -214.055 619.75 C-207.808 613.928 -203.483 605.447 -203.078 596.84 C-203.353 593.546 -204.32 591.541 -206.242 588.875 C-210.423 585.359 -213.779 583.966 -219.242 583.875 C-231.361 585.969 -239.52 593.779 -248.242 601.875 C-267.865 619.802 -287.085 629.127 -313.801 628.254 C-333.396 627.15 -349.776 620.304 -363.242 605.875 C-373.965 593.548 -378.788 576.442 -380.18 560.438 C-380.25 559.763 -380.32 559.088 -380.392 558.393 C-380.623 554.854 -380.323 553.01 -378.496 549.938 C-376.136 547.777 -375.368 547.209 -372.242 547.312 C-371.582 547.311 -370.922 547.31 -370.242 547.309 C-367.167 548.18 -366.123 549.266 -364.242 551.875 C-363.415 555.005 -363.09 558.161 -362.742 561.375 C-360.788 576.298 -356.804 590.5 -344.516 600.316 C-329.732 610.451 -312.795 612.7 -295.367 609.812 C-282.42 607.344 -272.585 601.07 -263.242 591.875 C-260.613 589.497 -257.929 587.188 -255.242 584.875 C-254.434 584.153 -253.626 583.431 -252.793 582.688 C-242.103 573.449 -229.894 566.426 -215.43 566.875 C-207.264 567.772 -199.397 571.092 -193.742 577.188 C-188.757 583.893 -185.87 591.45 -186.242 599.875 C-186.812 602.577 -187.514 605.209 -188.242 607.875 C-187.462 607.477 -186.682 607.079 -185.878 606.669 C-182.919 605.164 -179.957 603.664 -176.993 602.168 C-175.723 601.526 -174.454 600.881 -173.186 600.234 C-156.034 591.484 -137.117 582.105 -117.617 587.562 C-108.812 590.525 -103.961 593.901 -99.41 602.137 C-95.776 610.658 -97.332 618.374 -100.242 626.875 C-99.211 626.978 -98.18 627.081 -97.117 627.188 C-90.574 628.348 -84.799 631.317 -80.855 636.805 C-75.985 644.424 -74.994 651.937 -76.242 660.875 C-78.693 668.277 -82.824 674.334 -88.242 679.875 C-88.902 680.205 -89.562 680.535 -90.242 680.875 C-89.242 683.875 -89.242 683.875 -86.867 686.25 C-81.497 691.62 -80.105 696.452 -79.805 703.875 C-79.927 713.815 -84.075 720.948 -90.805 728.062 C-120.23 755.515 -164.367 769.74 -202.242 780.875 C-203.249 781.172 -204.256 781.469 -205.294 781.775 C-283.65 804.574 -373.225 813.958 -486.844 775.081 C-494.433 770.91 -501.482 766.281 -508.242 760.875 C-508.825 760.41 -509.409 759.945 -510.01 759.465 C-538.941 736.113 -559.602 703.188 -564.242 665.875 C-565.021 647.957 -565.499 629.386 -561.242 611.875 C-561.006 610.888 -560.769 609.9 -560.526 608.883 C-555.231 587.219 -547.772 567.005 -538.242 546.875 C-537.835 546.01 -537.428 545.146 -537.009 544.255 C-523.541 515.867 -506.38 489.73 -487.242 464.875 C-486.781 464.273 -486.32 463.672 -485.845 463.052 C-480.817 456.51 -475.659 450.091 -470.305 443.812 C-469.875 443.308 -469.446 442.803 -469.004 442.283 C-459.335 431.067 -449.014 420.484 -438.532 410.034 C-436.477 407.985 -434.428 405.93 -432.379 403.875 C-431.047 402.544 -429.715 401.213 -428.383 399.883 C-427.784 399.282 -427.185 398.68 -426.567 398.061 C-422.842 394.356 -418.994 390.841 -415.015 387.409 C-412.606 385.324 -410.27 383.162 -407.93 381 C-403.231 376.696 -398.381 372.705 -393.359 368.785 C-391.242 366.875 -391.242 366.875 -390.242 363.875 C-390.591 361.647 -391.039 359.434 -391.535 357.234 C-391.838 355.857 -392.14 354.479 -392.441 353.101 C-392.522 352.737 -392.522 352.737 -392.931 350.895 C-401.063 313.887 -406.004 274.427 -398.242 236.875 C-398.156 236.445 -398.156 236.445 -397.722 234.27 C-391.21 202.419 -377.867 173.078 -358.09 147.301 C-356.746 145.537 -355.472 143.72 -354.242 141.875 C-355.026 141.689 -355.81 141.504 -356.617 141.312 C-369.788 136.09 -380.93 124.371 -387.242 111.875 C-394.374 95.093 -394.642 78.71 -388.555 61.562 C-381.827 46.43 -369.443 35.846 -354.242 29.875 C-340.828 25.936 -326.12 26.494 -313.242 31.875 C-312.363 32.237 -311.484 32.599 -310.578 32.973 C-292.745 41.116 -280.513 58.123 -273.242 75.875 C-272.817 75.638 -272.817 75.638 -270.664 74.441 C-213.202 42.89 -146.48 33.985 -83.07 52.027 C-82.137 52.307 -81.204 52.587 -80.242 52.875 C-80.216 52.027 -80.191 51.179 -80.164 50.305 C-79.286 32.146 -73.571 15.5 -60.18 2.75 C-42.341 -11.79 -19.093 -11.719 0 0 Z M-52.965 18.621 C-60.548 27.95 -63.323 39.103 -64.242 50.875 C-64.294 51.28 -64.294 51.28 -64.555 53.328 C-64.617 55.375 -64.617 55.375 -63.242 58.875 C-58.372 62.197 -53.026 64.657 -47.242 65.875 C-46.879 64.957 -46.515 64.039 -46.141 63.094 C-43.515 56.63 -40.992 50.812 -36.441 45.426 C-35.242 43.875 -35.242 43.875 -34.242 40.875 C-31.805 39.75 -31.805 39.75 -29.242 38.875 C-28.582 38.545 -27.922 38.215 -27.242 37.875 C-24.367 37.5 -24.367 37.5 -21.242 37.875 C-18.805 40.062 -18.805 40.062 -17.242 42.875 C-17.152 46.485 -18.041 47.657 -20.492 50.312 C-20.946 50.735 -20.946 50.735 -23.242 52.875 C-28.687 58.719 -31.853 64.972 -33.242 72.875 C-31.684 74.006 -30.121 75.13 -28.555 76.25 C-27.685 76.876 -26.814 77.503 -25.918 78.148 C-21.193 81.197 -21.193 81.197 -18.242 81.875 C-8.071 77.329 -0.945 67.478 3.195 57.438 C6.89 47.38 6.665 37.921 2.758 27.875 C-2.213 18.295 -9.157 12.51 -19.242 8.875 C-31.533 5.207 -44.141 9.678 -52.965 18.621 Z " fill="#415FF5" transform="translate(752.2421875,225.125)"/>
<path d="M0 0 C1.876 3.002 2.076 5.028 2.191 8.5 C1.188 11.69 -0.68 12.647 -3.438 14.5 C-6.519 15.681 -9.67 16.489 -12.867 17.297 C-13.776 17.535 -14.684 17.774 -15.62 18.02 C-17.537 18.52 -19.455 19.013 -21.375 19.501 C-24.3 20.247 -27.218 21.014 -30.137 21.785 C-32.005 22.27 -33.873 22.753 -35.742 23.234 C-36.609 23.462 -37.476 23.691 -38.369 23.925 C-43.143 25.126 -47.474 25.94 -52.438 25.5 C-54.938 23.438 -54.938 23.438 -56.438 20.5 C-56.438 16.786 -56.156 14.491 -53.958 11.46 C-50.321 8.632 -46.529 7.814 -42.105 6.703 C-41.195 6.465 -40.286 6.226 -39.348 5.98 C-37.426 5.48 -35.502 4.986 -33.576 4.499 C-30.642 3.754 -27.714 2.986 -24.787 2.215 C-22.914 1.73 -21.041 1.247 -19.168 0.766 C-18.298 0.538 -17.428 0.309 -16.532 0.075 C-4.697 -2.891 -4.697 -2.891 0 0 Z " fill="#415FF5" transform="translate(911.4375,275.5)"/>
<path d="M0 0 C5.877 1.137 10.083 4.273 14.875 7.75 C15.517 8.205 16.159 8.66 16.82 9.129 C24.153 14.842 30.137 23.303 33.875 31.75 C34.353 35.71 34.482 37.804 32.312 41.188 C28.865 43.398 26.894 43.455 22.875 42.75 C20.014 40.104 18.313 37.486 16.328 34.148 C10.717 24.805 4.272 19.7 -5.375 14.793 C-7.125 13.75 -7.125 13.75 -8.125 11.75 C-8.66 7.737 -8.456 6.211 -6.062 2.875 C-3.125 0.75 -3.125 0.75 0 0 Z " fill="#415FF5" transform="translate(417.125,303.25)"/>
<path d="M0 0 C1.425 1.239 2.818 2.514 4.188 3.812 C15.139 13.871 29.681 16.367 44.125 15.938 C44.835 15.893 45.546 15.848 46.278 15.802 C49.878 15.648 51.822 15.895 54.953 17.754 C57.087 20.096 57.686 20.898 57.625 24 C57.403 27.143 57.085 27.897 55 30.438 C51.31 32.359 48.084 32.832 44 33 C43.209 33.052 42.417 33.103 41.602 33.156 C25.08 33.752 9.219 28.888 -4 19 C-4.588 18.566 -5.176 18.131 -5.781 17.684 C-9.011 15.158 -11.453 12.822 -13 9 C-12.878 5.46 -12.746 3.017 -10.625 0.125 C-6.584 -2.672 -4.255 -1.97 0 0 Z " fill="#415FF5" transform="translate(683,368)"/>
<path d="M0 0 C2.674 2.242 2.956 3.752 3.562 7.188 C2.231 16.211 -5.28 23.305 -12 29 C-26.422 39.576 -45.538 50.324 -64 49 C-67.421 46.525 -68.795 45.117 -69.562 40.938 C-68.867 37.306 -67.8 36.352 -65 34 C-62.597 33.046 -62.597 33.046 -59.922 32.395 C-58.933 32.138 -57.945 31.882 -56.926 31.618 C-55.878 31.352 -54.83 31.086 -53.75 30.812 C-35.089 25.696 -21.373 17.702 -10.156 1.496 C-7.354 -2.129 -4.048 -0.923 0 0 Z " fill="#415FF5" transform="translate(602,376)"/>
<path d="M0 0 C3.141 3.263 4.205 7.186 5.445 11.434 C5.661 12.149 5.876 12.863 6.098 13.6 C6.55 15.108 6.999 16.616 7.444 18.126 C8.122 20.428 8.812 22.727 9.504 25.025 C9.943 26.495 10.382 27.964 10.82 29.434 C11.024 30.117 11.229 30.801 11.439 31.505 C14.416 41.624 15.627 51.145 11 61 C7.079 66.713 2.889 71.306 -4 73 C-11.666 73.767 -18.734 73.919 -25 69 C-30.376 63.987 -33.442 59.468 -34.371 52.027 C-34.752 34.313 -24.767 21.909 -15 8 C-14.755 7.648 -14.755 7.648 -13.517 5.864 C-9.456 0.068 -7.183 -2.14 0 0 Z M-8 23 C-9.577 25.158 -11.02 27.303 -12.438 29.562 C-12.635 29.867 -12.635 29.867 -13.635 31.408 C-17.917 38.141 -21.593 44.794 -20 53 C-18.291 56.369 -16.119 58.499 -12.625 60.062 C-8.683 59.969 -6.37 59.06 -3 57 C-0.023 52.677 0.451 47.997 -0.34 42.852 C-1.893 36.144 -3.956 29.571 -6 23 C-6.66 23 -7.32 23 -8 23 Z " fill="#415FF5" transform="translate(438,421)"/>
<path d="M0 0 C0.704 0.09 1.408 0.179 2.134 0.271 C32.45 4.161 32.45 4.161 37.375 10.25 C38.636 13.446 38.534 14.817 37.348 18.055 C34.799 22.182 31.832 24.286 27.875 27 C27.111 27.538 26.347 28.076 25.561 28.63 C-10.827 54.05 -10.827 54.05 -17.625 53.25 C-20.948 50.794 -22.401 49.324 -23.25 45.25 C-22.212 40.268 -18.593 37.92 -14.531 35.109 C-13.399 34.4 -12.264 33.698 -11.125 33 C-4.14 28.623 2.63 23.989 9.375 19.25 C4.693 17.79 0.442 16.932 -4.477 16.574 C-5.74 16.468 -7.003 16.362 -8.305 16.252 C-10.942 16.042 -13.58 15.844 -16.219 15.658 C-17.479 15.548 -18.74 15.438 -20.039 15.324 C-20.611 15.281 -20.611 15.281 -23.506 15.061 C-27.474 14.029 -29.085 12.42 -31.625 9.25 C-32.25 5.688 -32.25 5.688 -31.625 2.25 C-25.424 -6.089 -9.01 -1.164 0 0 Z " fill="#415FF5" transform="translate(579.625,450.75)"/>
<path d="M0 0 C7.013 3.799 9.166 15.237 11.688 22.375 C12.09 23.498 12.493 24.621 12.908 25.777 C16.415 35.61 19.433 45.714 15.75 56.062 C12.058 63.578 8.638 67.752 0.75 70.938 C-6.311 72.232 -12.867 71.44 -19.18 67.926 C-24.765 63.934 -28.036 58.859 -29.555 52.188 C-31.484 36.755 -23.174 24.914 -15 12.625 C-14.596 12.017 -14.192 11.409 -13.776 10.782 C-6.012 -0.751 -6.012 -0.751 0 0 Z M-5 23.625 C-6.432 25.663 -7.729 27.678 -9 29.812 C-9.356 30.391 -9.712 30.969 -10.078 31.564 C-14.129 38.252 -16.223 43.771 -15 51.625 C-12.998 54.753 -11.714 56.248 -8.027 57.059 C-4.501 57.276 -2.402 56.924 0.438 54.812 C3.381 50.692 3.479 46.519 3 41.625 C2.212 38.377 1.136 35.266 0 32.125 C-0.286 31.303 -0.572 30.48 -0.867 29.633 C-1.567 27.626 -2.282 25.625 -3 23.625 C-3.66 23.625 -4.32 23.625 -5 23.625 Z " fill="#415FF5" transform="translate(463,522.375)"/>
<path d="M0 0 C5.886 5.081 9.617 10.724 10.312 18.492 C10.542 25.724 10.745 32.21 6 38 C1.364 42.859 -2.978 46.523 -9.832 47.336 C-17.72 47.439 -23.026 46.622 -28.938 41.234 C-35.617 34.166 -37.612 27.641 -37.355 17.969 C-36.579 11.483 -33.618 5.618 -29 1 C-19.593 -5.499 -9.883 -5.746 0 0 Z M-22 15 C-23.612 18.224 -23.46 21.505 -23 25 C-21.725 28.402 -20.022 31.154 -17.188 33.5 C-13.79 34.277 -11.355 33.899 -8 33 C-5.041 30.353 -4.124 28.446 -3.062 24.625 C-2.967 19.1 -4.522 15.558 -8.312 11.562 C-14.431 8.005 -17.709 9.851 -22 15 Z " fill="#415FF5" transform="translate(873,529)"/>
<path d="M0 0 C6.541 4.369 9.55 9.651 12 17 C12.887 26.553 11.131 33.582 6.375 41.812 C0.663 47.074 -6.284 49.878 -14 50 C-21.759 49.333 -28.309 45.996 -33.605 40.262 C-39.187 32.879 -39.877 25.031 -39 16 C-37.014 8.766 -32.932 2.573 -26.438 -1.312 C-17.489 -5.705 -8.521 -5.1 0 0 Z M-24 16 C-25.302 20.327 -25.324 24.047 -23.875 28.312 C-21.344 31.94 -19.374 34.538 -14.852 35.418 C-10.459 35.688 -8.571 35.44 -5 32.688 C-1.853 28.458 -1.568 25.186 -2 20 C-3.4 16.288 -5.304 13.553 -8.438 11.062 C-14.822 8.415 -19.697 10.908 -24 16 Z " fill="#415FF5" transform="translate(680,555)"/>
<path d="M0 0 C3.575 2.788 6.813 5.779 10 9 C10.624 9.59 11.248 10.181 11.891 10.789 C22.295 21.428 27.873 37.311 28.375 51.938 C27.95 64.888 23.8 75.654 18 87 C18.785 87.666 19.57 88.333 20.379 89.02 C34.396 101.2 41.376 114.706 43.223 133.234 C43.916 149.264 37.484 164.673 27.234 176.75 C14.66 189.413 -0.418 194.724 -18 195 C-20.432 194.833 -22.614 194.511 -25 194 C-25.062 195.072 -25.124 196.145 -25.188 197.25 C-26.868 210.416 -34.574 220.501 -44.293 228.953 C-54.206 236.449 -66.736 239.249 -79 238 C-81.839 237.518 -84.636 236.912 -87.438 236.25 C-88.124 236.093 -88.811 235.936 -89.518 235.775 C-93.728 234.691 -96.326 233.459 -99 230 C-99.893 226.938 -100.192 224.865 -99.5 221.75 C-97.669 219.614 -95.9 218.765 -93.176 218.105 C-89.541 217.929 -86.337 219.195 -82.891 220.25 C-73.777 222.615 -63.7 221.231 -55.52 216.594 C-48.276 211.449 -43.079 204.037 -41.219 195.273 C-40.827 191.203 -41.076 187.127 -41.32 183.051 C-40.917 179.205 -39.76 177.658 -37 175 C-32.136 174.329 -28.642 175.015 -24 176.5 C-14.48 179.538 -5.327 177.844 3.711 173.781 C14.159 167.995 21.003 159.022 24.746 147.754 C27.573 136.818 26.592 125.111 21.488 115.008 C15.918 105.769 9.787 101.126 0.258 96.297 C-2 95 -2 95 -3 93 C-3.375 89.405 -3.334 87.546 -1.426 84.43 C-0.728 83.587 -0.031 82.744 0.688 81.875 C8.904 71.197 12.319 59.407 11 46 C7.938 32.352 1.688 21.687 -10.055 13.723 C-22.128 6.661 -34.695 3.999 -48.52 6.684 C-60.622 10.143 -70.294 15.799 -76.656 26.887 C-77.678 28.803 -78.676 30.734 -79.641 32.68 C-81 35 -81 35 -84 37 C-87.362 36.82 -89.999 36.581 -92.938 34.875 C-94.676 31.808 -94.711 29.353 -94 26 C-88.237 10.5 -76.671 0.248 -62.043 -6.676 C-41.761 -15.502 -18.245 -12.053 0 0 Z " fill="#415FF5" transform="translate(1086,624)"/>
<path d="M0 0 C8.882 7.747 14.4 15.096 15.477 27.098 C15.836 40.374 11.669 51.201 2.691 61.043 C-7.255 70.369 -20.013 75.002 -32.809 78.918 C-33.763 79.211 -34.717 79.504 -35.7 79.806 C-83.619 94.308 -83.619 94.308 -104.934 84.477 C-112.51 80.04 -117.692 74.445 -120.184 65.918 C-122.549 53.379 -118.908 41.987 -111.789 31.543 C-95.886 10.464 -72.526 -4.089 -46.453 -8.672 C-30.626 -10.453 -13.264 -9.833 0 0 Z M-97.496 37.73 C-98.703 39.664 -98.703 39.664 -99.809 41.918 C-100.048 42.347 -100.048 42.347 -101.258 44.516 C-104.192 50.232 -106.128 55.482 -104.809 61.918 C-102.548 66.91 -99.661 69.024 -94.805 71.172 C-92.073 72.193 -89.728 72.689 -86.809 72.918 C-86.454 72.95 -86.454 72.95 -84.66 73.109 C-71.687 73.728 -58.143 69.577 -45.809 65.918 C-47.291 56.576 -50.77 50.111 -58.184 44.105 C-67.015 37.704 -88.216 27.576 -97.496 37.73 Z " fill="#415FF5" transform="translate(780.80859375,652.08203125)"/>
<path d="M0 0 C2.375 1.625 2.375 1.625 4 4 C4.562 7 4.562 7 4 10 C-6.403 19.677 -22.552 23.619 -36 27 C-36.355 27.09 -36.355 27.09 -38.15 27.548 C-50.063 30.403 -62.256 30.334 -74.438 30.438 C-75.274 30.45 -76.11 30.462 -76.971 30.475 C-79.376 30.504 -81.779 30.505 -84.184 30.496 C-84.548 30.502 -84.548 30.502 -86.391 30.53 C-89.816 30.483 -91.684 30.237 -94.457 28.156 C-96 26 -96 26 -96.5 23 C-95.868 19.21 -95.09 18.26 -92 16 C-89.103 15.752 -86.565 15.725 -83.688 15.875 C-57.865 16.508 -31.091 13.034 -7.918 0.911 C-5.109 -0.423 -3.065 -0.383 0 0 Z " fill="#415FF5" transform="translate(999,687)"/>
<path d="M0 0 C2.927 0.883 5.731 2.039 8.562 3.188 C42.549 16.302 85.523 21.704 121.029 12.472 C124.138 11.727 126.82 11.716 130 12 C132.438 13.625 132.438 13.625 134 16 C134.576 19.454 134.59 21.17 132.543 24.051 C128.902 26.841 125.264 27.37 120.812 28.188 C120 28.352 119.187 28.516 118.35 28.686 C109.942 30.338 101.639 31.154 93.074 31.203 C92.253 31.21 91.432 31.217 90.585 31.224 C87.953 31.242 85.32 31.248 82.688 31.25 C81.788 31.251 80.889 31.251 79.962 31.252 C67.054 31.237 54.638 30.834 42 28 C40.32 27.656 38.641 27.312 36.961 26.969 C-1.203 18.797 -1.203 18.797 -10 10 C-10.469 6.406 -10.444 4.648 -8.375 1.625 C-5.241 -0.519 -3.78 -0.336 0 0 Z " fill="#415FF5" transform="translate(894,738)"/>
<path d="M0 0 C1.035 0.964 2.033 1.968 3 3 C17.167 17.921 36.829 27.411 56 34 C63.644 36.687 63.644 36.687 66.062 38.812 C67.394 41.919 66.953 43.8 66 47 C64.938 48.875 64.938 48.875 63 50 C56.152 50.564 50.875 48.967 44.5 46.562 C43.534 46.203 42.568 45.843 41.572 45.472 C21.719 37.845 5.169 25.721 -10 11 C-10.597 10.429 -11.194 9.858 -11.809 9.27 C-13.459 7.511 -13.858 6.412 -14 4 C-12.757 1.253 -11.538 -0.539 -9.25 -2.5 C-5.629 -3.305 -3 -1.908 0 0 Z " fill="#415FF5" transform="translate(895,778)"/>
<path d="M0 0 C3.189 2.628 4.665 4.979 5.965 8.867 C6.288 9.824 6.61 10.78 6.943 11.766 C7.271 12.792 7.599 13.818 7.938 14.875 C8.111 15.409 8.111 15.409 8.989 18.113 C12.322 28.617 14.94 39.178 17 50 C17.164 50.82 17.327 51.639 17.496 52.483 C20.023 65.562 20.284 78.599 20.312 91.875 C20.316 92.713 20.32 93.55 20.324 94.414 C20.329 96.836 20.318 99.257 20.301 101.68 C20.302 102.4 20.302 103.12 20.303 103.862 C20.228 109.363 19.999 115.715 16.25 120 C13.182 121.364 11.327 121.543 8 121 C5.35 119.029 3.314 117.458 2.592 114.11 C2.487 111.814 2.543 109.57 2.652 107.273 C2.69 105.515 2.728 103.756 2.765 101.998 C2.794 101.08 2.823 100.162 2.853 99.216 C3.705 70.592 0.126 43.094 -9.375 15.938 C-10.864 11.676 -11.749 8.494 -11 4 C-8.112 -0.505 -5.118 -0.731 0 0 Z " fill="#415FF5" transform="translate(781,885)"/>
</svg>
