<?xml version="1.0" encoding="UTF-8"?>
<!-- Generator: visioncortex VTracer 0.6.12 -->
<svg version="1.1" xmlns="http://www.w3.org/2000/svg" width="1254" height="1254">
<path d="M0 0 C1.938 1.125 1.938 1.125 3 3 C3.793 9.623 1.507 13.373 -1.812 18.812 C-9.101 31.44 -12.411 43.232 -9.414 57.859 C-7.389 63.545 -3.843 68.305 -0.363 73.18 C8.966 86.277 13.138 100.144 10.461 116.242 C7.473 129.145 1.151 141.585 -7 152 C-9.841 153.42 -11.855 153.315 -15 153 C-17.32 151.245 -18.607 149.76 -19.938 147.188 C-20.088 141.924 -16.348 136.781 -13.687 132.407 C-7.276 121.771 -3.019 110.576 -6 98 C-7.97 90.632 -12.022 84.813 -16.277 78.61 C-25.731 64.709 -29.009 50.783 -25.875 34.188 C-23.143 22.521 -18.112 8.469 -9.012 0.191 C-5.825 -1.696 -3.476 -0.885 0 0 Z " fill="#415FF5" transform="translate(509,111)"/>
<path d="M0 0 C2.367 1.578 2.871 2.593 3.73 5.297 C4.074 8.745 3.225 10.062 1.438 13 C-6.448 26.602 -12.763 39.884 -9.383 55.93 C-7.307 62.268 -3.884 67.374 -0.098 72.816 C2.134 76.203 4.05 79.634 5.875 83.25 C6.152 83.799 6.152 83.799 7.555 86.578 C13.323 100.235 12.444 115.285 6.942 128.869 C5.147 132.929 3.12 136.851 1 140.75 C0.585 141.513 0.17 142.276 -0.257 143.062 C-2.638 147.224 -4.815 150.433 -9 153 C-12.493 152.94 -14.904 152.637 -17.938 150.875 C-19.674 147.811 -19.325 145.479 -19 142 C-17.7 139.104 -15.99 136.524 -14.25 133.875 C-7.275 122.619 -2.929 111.543 -5.555 98.176 C-7.551 91.055 -11.107 85.506 -15.277 79.512 C-25.19 65.204 -27.66 50.772 -25.605 33.727 C-23.133 22.083 -16.517 9.217 -9 0 C-5.85 -1.575 -3.365 -0.708 0 0 Z " fill="#415FF5" transform="translate(579,111)"/>
<path d="M0 0 C2.499 2.176 2.938 3.436 3.301 6.719 C2.931 10.755 1.355 13.458 -0.75 16.812 C-1.49 18.053 -2.227 19.295 -2.961 20.539 C-3.315 21.135 -3.669 21.731 -4.034 22.345 C-10.036 32.631 -12.707 44.231 -10 56 C-6.896 63.878 -2.617 70.736 2.363 77.574 C10.627 89.821 12.517 103.301 10 117.625 C7.374 129.038 0.951 143.815 -7.949 151.734 C-10 153 -10 153 -13.562 152.938 C-17 152 -17 152 -19 150.375 C-20.463 146.9 -19.802 144.664 -19 141 C-17.767 138.464 -16.244 136.16 -14.688 133.812 C-7.201 121.83 -3.799 110.394 -6.555 96.129 C-8.609 89.547 -12.399 84.176 -16.277 78.56 C-25.335 65.371 -28.954 52.117 -26.383 36.172 C-23.739 23.449 -18.092 9.527 -9 0 C-5.817 -1.592 -3.387 -0.772 0 0 Z " fill="#415FF5" transform="translate(647,111)"/>
<path d="M0 0 C2.127 1.557 2.127 1.557 4 4 C4.398 6.771 4.562 9.138 4.531 11.906 C4.535 12.668 4.539 13.43 4.543 14.214 C4.546 15.822 4.538 17.429 4.521 19.036 C4.5 21.492 4.521 23.946 4.547 26.402 C4.544 27.966 4.539 29.53 4.531 31.094 C4.539 31.826 4.547 32.559 4.556 33.313 C4.493 36.737 4.24 38.674 2.186 41.463 C-1.018 43.716 -3.181 43.546 -7 43 C-9.188 41.479 -9.188 41.479 -11 39 C-11.386 36.147 -11.538 33.688 -11.496 30.84 C-11.498 30.054 -11.499 29.267 -11.501 28.457 C-11.499 26.799 -11.487 25.14 -11.467 23.482 C-11.438 20.943 -11.446 18.405 -11.459 15.865 C-11.453 14.253 -11.444 12.64 -11.434 11.027 C-11.437 10.268 -11.439 9.508 -11.442 8.726 C-11.349 3.505 -11.349 3.505 -9.66 1.061 C-6.178 -1.164 -3.837 -1.217 0 0 Z " fill="#415FF5" transform="translate(972,183)"/>
<path d="M0 0 C5.734 1.788 9.821 7.341 13.847 11.626 C14.86 12.671 15.875 13.714 16.892 14.755 C25.222 23.349 25.222 23.349 25.784 27.564 C25.409 30.751 25.409 30.751 23.284 33.626 C20.409 35.751 20.409 35.751 17.472 36.376 C11.114 35.079 7.414 29.743 3.417 24.993 C0.324 21.54 -3.121 18.456 -6.552 15.341 C-9.105 12.098 -9.444 9.838 -9.591 5.751 C-7.417 1.31 -4.997 -0.134 0 0 Z " fill="#415FF5" transform="translate(868.590576171875,225.248779296875)"/>
<path d="M0 0 C1.938 1.688 1.938 1.688 3 4 C2.752 9.769 1.367 12.398 -2.664 16.461 C-3.134 16.937 -3.605 17.413 -4.089 17.903 C-5.082 18.901 -6.083 19.89 -7.09 20.873 C-8.621 22.371 -10.118 23.9 -11.613 25.434 C-12.587 26.403 -13.562 27.37 -14.539 28.336 C-14.978 28.772 -14.978 28.772 -17.202 30.978 C-20.568 33.41 -22.879 33.854 -27 34 C-29.938 32.562 -29.938 32.562 -32 30 C-32.616 26.711 -32.849 25.139 -32 22 C-29.503 18.511 -26.462 15.709 -23.312 12.812 C-22.496 12.032 -21.679 11.251 -20.838 10.447 C-19.264 8.944 -17.681 7.451 -16.088 5.967 C-14.376 4.354 -12.731 2.71 -11.105 1.012 C-7.191 -2.728 -4.694 -2.054 0 0 Z " fill="#415FF5" transform="translate(1075,227)"/>
<path d="M0 0 C0.381 0.333 0.381 0.333 2.309 2.02 C17.667 16.366 27.476 37.764 28.312 58.73 C28.606 75.063 28.606 75.063 26 82 C23.875 83.625 23.875 83.625 21 84 C14.291 82.291 14.291 82.291 12 80 C11.949 78.455 11.965 76.908 12.008 75.363 C12.466 52.269 8.661 32.424 -7.625 14.812 C-22.857 0.476 -41.493 -5.814 -62.117 -5.305 C-81.053 -4.405 -97.227 4.269 -110 18 C-122.841 33.131 -128.115 51.332 -127 71 C-124.422 89.719 -115.954 107.085 -101 119 C-96.563 122.109 -91.846 124.594 -87 127 C-86.597 127.21 -86.597 127.21 -84.555 128.273 C-78.21 131.213 -71.482 132.025 -64.599 132.874 C-56.604 133.929 -56.604 133.929 -54 137 C-53.469 139.375 -53.469 139.375 -53.5 142 C-53.495 142.433 -53.495 142.433 -53.469 144.625 C-54 147 -54 147 -55.469 148.812 C-61.772 151.769 -69.293 149.833 -75.812 148.312 C-76.594 148.132 -77.376 147.952 -78.182 147.767 C-95.075 143.698 -107.803 135.022 -120 123 C-120.329 122.677 -120.329 122.677 -121.996 121.043 C-138.717 103.318 -143.546 80.867 -143.281 57.305 C-143.056 49.709 -141.658 43.148 -139 36 C-138.626 34.949 -138.252 33.899 -137.867 32.816 C-128.922 9.565 -110.563 -6.648 -88.242 -16.68 C-58.439 -28.816 -23.762 -20.903 0 0 Z " fill="#415FF5" transform="translate(1026,270)"/>
<path d="M0 0 C2.688 2.5 2.688 2.5 5 5 C5.229 5.238 5.229 5.238 6.387 6.441 C14.991 15.814 23 29.966 23 43 C24.082 42.564 25.163 42.129 26.277 41.68 C44.146 34.684 62.86 29.776 82 28 C83.008 27.89 84.016 27.781 85.055 27.668 C121.717 24.17 158.425 30.086 191.979 45.099 C194.972 46.433 197.986 47.716 201 49 C201.112 48.292 201.224 47.585 201.34 46.855 C204.488 33.236 214.621 21.592 226 14 C237.21 7.531 249.284 5.698 262 8 C274.884 11.573 285.396 18.863 292.438 30.344 C299.602 43.82 301.006 57.632 296.867 72.355 C295.773 75.692 294.512 78.832 293 82 C293.577 82.165 293.577 82.165 296.5 83 C304.029 85.518 310.994 89.309 318 93 C319.159 93.608 320.318 94.217 321.512 94.844 C336.988 103.328 350.933 114.192 364 126 C364.609 126.548 365.219 127.095 365.847 127.66 C378.61 139.184 390.385 151.455 401 165 C401.479 165.607 401.958 166.213 402.452 166.838 C446.548 222.814 477.407 291.121 480 363 C480.043 364.136 480.085 365.271 480.129 366.441 C481.128 421.767 460.258 473.89 425 516 C424.214 516.971 423.427 517.941 422.617 518.941 C416.149 526.809 409.117 534.097 401.938 541.312 C401.028 542.231 400.118 543.15 399.181 544.097 C393.094 550.156 386.726 555.664 380 561 C378.838 561.947 377.677 562.895 376.52 563.848 C374.013 565.898 371.507 567.949 369 570 C370.506 574.849 372.401 579.501 374.325 584.195 C393.433 630.937 405.27 680.825 405.188 731.5 C405.187 731.844 405.187 731.844 405.186 733.587 C405.164 742.658 404.971 751.703 404.25 760.75 C404.188 761.641 404.127 762.533 404.063 763.451 C403.699 767.281 403.45 769.412 401.074 772.52 C398.574 774.304 397.081 774.925 394 775 C391.717 773.858 389.81 772.81 388 771 C387.549 763.392 388.088 755.725 388.5 748.125 C391.766 685.636 376.328 620.517 347.708 565.079 C343.073 555.897 343.073 555.897 344 550 C346.125 547.5 346.125 547.5 349 546 C352.063 545.938 352.063 545.938 355 547 C357.864 549.864 359.16 552.097 360 556 C362.363 554.119 364.722 552.234 367.078 550.344 C368.98 548.818 370.886 547.297 372.797 545.781 C378.194 541.451 383.188 536.949 388.012 531.988 C389.658 530.342 391.301 528.876 393.125 527.438 C396.124 524.895 398.562 522.196 401.102 519.207 C403.074 516.914 405.127 514.713 407.188 512.5 C448.205 466.886 465.784 410.643 463 350 C462.525 342.227 461.493 334.639 460 327 C459.807 325.997 459.613 324.994 459.414 323.961 C448.473 268.984 422.558 217.161 387 174 C386.354 173.181 385.708 172.363 385.043 171.52 C366.134 147.769 343.663 128.146 318 112 C316.897 111.303 315.793 110.605 314.656 109.887 C289.539 94.775 255.488 83.414 226.125 90.25 C218.592 92.58 212.197 95.049 208 102 C207.805 104.292 207.805 104.292 207.875 106.707 C207.893 107.512 207.911 108.318 207.93 109.148 C207.941 109.453 207.941 109.453 208 111 C208.567 110.984 209.134 110.969 209.718 110.952 C229.129 110.49 246.692 112.431 265 119 C266.173 119.415 267.346 119.83 268.555 120.258 C277.548 123.687 277.548 123.687 280 129 C279.931 132.434 279.601 134.254 277.438 136.938 C271.469 139.539 264.273 136.226 258.5 134.125 C245.66 129.723 233.678 127.75 220.125 127.625 C219.079 127.611 218.033 127.597 216.955 127.583 C208.235 127.637 199.442 128.558 193 135 C191.374 138.252 191.469 141.486 192 145 C194.621 150.049 197.303 151.355 202.66 153.051 C209.907 155.183 217.056 156.016 224.544 156.725 C255.94 159.748 255.94 159.748 263.348 165.973 C265.594 168.729 266.073 170.446 266 174 C264.125 176.938 264.125 176.938 261 179 C255.227 179.093 250.277 177.522 244.75 175.938 C237.984 174.025 230.998 172.627 224 174 C220.869 176.448 220.101 177.395 219.438 181.375 C220.121 185.777 221.657 188.197 225 191 C232.724 195.489 241.004 197.247 249.621 199.355 C258.074 201.51 263.926 203.548 269 211 C269.878 212.728 270.752 214.457 271.625 216.188 C276.936 226.016 284.475 232.288 294.266 237.313 C297.715 239.103 300.17 240.516 302 244 C302.555 247.031 302.555 247.031 302.875 250.5 C303.789 257.496 305.012 264.052 309 270 C311.809 271.926 314.694 272.345 318 273 C348.567 281.967 372.844 299.313 388.785 327.113 C406.882 360.961 405.979 400.912 395.9 437.035 C393.589 444.647 390.454 451.845 387 459 C386.688 459.661 386.377 460.323 386.056 461.004 C379.587 474.582 370.791 486.548 360 497 C359.216 497.804 358.433 498.609 357.625 499.438 C346.082 510.705 333.23 519.472 319 527 C318.344 527.35 317.688 527.701 317.013 528.062 C290.327 542.091 259.963 549.88 230.375 554.75 C229.174 554.949 227.972 555.148 226.735 555.353 C207.155 558.407 187.673 559.38 167.875 559.312 C166.759 559.311 165.644 559.309 164.494 559.307 C111.431 559.161 54.599 549.864 14.305 512.344 C-3.884 493.846 -3.884 493.846 -5 484 C-4.247 481.055 -3.653 479.513 -1.25 477.625 C2.142 476.683 3.644 476.75 7 478 C9.652 480.76 11.781 483.888 14 487 C24.373 500.92 36.875 510.731 52 519 C52.53 519.302 52.53 519.302 55.215 520.828 C71.511 529.598 89.893 534.585 108 538 C108.675 538.137 109.351 538.275 110.046 538.417 C150.701 546.683 194.413 544.153 235 537 C236.018 536.821 237.035 536.642 238.083 536.458 C283.888 528.161 333.072 509.926 361.34 470.758 C382.256 439.832 391.235 401.755 384.875 364.688 C379.662 340.5 367.923 317.857 346.949 303.789 C312.765 283.052 270.106 280.566 231 280 C230.202 279.985 229.403 279.97 228.581 279.954 C223.051 279.858 217.53 279.896 212 280 C210.981 280.018 209.962 280.036 208.912 280.054 C154.13 281.152 92.199 285.111 48 321 C47.074 321.748 46.149 322.495 45.195 323.266 C34.083 332.773 26.321 344.092 20.548 357.453 C17.847 363.698 17.847 363.698 15 366 C9.013 366.641 9.013 366.641 6.125 364.812 C4.276 361.834 3.78 359.112 4.461 355.668 C9.334 342.443 16.458 330.381 26 320 C26.464 319.489 26.927 318.977 27.405 318.451 C65.483 276.878 128.304 266.93 181.843 264.192 C191.995 263.759 202.165 263.814 212.324 263.815 C216.201 263.813 220.077 263.794 223.953 263.775 C240.248 263.739 256.381 264.426 272.621 265.733 C278.412 266.191 284.206 266.593 290 267 C286.361 251.045 286.361 251.045 280.25 247 C278.503 245.995 276.753 244.995 275 244 C268.302 238.892 261.116 232.218 258.33 224.031 C257.019 220.497 256.04 218.506 252.564 216.816 C249.438 215.875 246.316 215.131 243.125 214.438 C229.975 211.162 216.341 207.61 208 196 C204.151 189.203 202.792 182.547 204.461 174.883 C204.917 173.238 205.45 171.615 206 170 C205.051 169.918 204.102 169.835 203.125 169.75 C194.28 168.428 187.003 164.627 181 158 C176.016 151.094 175.237 144.323 176 136 C177.753 128.396 181.752 122.674 188 118 C190.25 117.285 190.25 117.285 192 117 C191.841 116.434 191.683 115.868 191.52 115.285 C189.646 107.044 191.236 99.462 195 92 C199.488 85.049 205.949 81.08 213 77 C171.344 47.793 120.348 37.736 70.2 46.489 C31.2 53.8 31.2 53.8 22 63 C15.004 63.677 15.004 63.677 11.855 61.555 C9.171 57.858 8.866 54.201 8.188 49.75 C5.405 34.27 0.255 21.32 -12 11 C-15.857 8.506 -19.711 6.63 -24 5 C-24.686 4.725 -25.372 4.451 -26.078 4.168 C-34.51 1.422 -44.663 3.056 -52.59 6.652 C-61.118 11.421 -66.786 17.197 -71 26 C-71.17 26.331 -71.17 26.331 -72.027 28.004 C-75.855 37.017 -75.492 49.845 -72.375 59 C-71.632 60.689 -70.841 62.358 -70 64 C-69.794 64.418 -69.794 64.418 -68.75 66.535 C-62.976 77.148 -54.329 84.392 -44.002 90.338 C-40.383 92.541 -39.185 93.548 -37.512 97.625 C-37 101 -37 101 -37.812 103.812 C-40.298 106.298 -40.91 106.258 -44.238 106.668 C-49.951 107.846 -52.159 110.855 -55.375 115.5 C-55.924 116.258 -56.473 117.017 -57.038 117.798 C-58.732 120.174 -60.374 122.577 -62 125 C-62.493 125.734 -62.986 126.468 -63.495 127.225 C-103.88 188.347 -108.134 264.968 -94.577 335.21 C-92.787 343.869 -90.798 352.607 -88 361 C-87.562 364.375 -87.562 364.375 -88 368 C-90.968 371.18 -92.742 372.614 -96.887 373.887 C-100.333 375.119 -102.403 376.641 -105.188 379 C-106.136 379.802 -107.085 380.604 -108.062 381.43 C-111.9 384.787 -115.682 388.199 -119.434 391.652 C-121.676 393.703 -123.948 395.705 -126.25 397.688 C-131.905 402.617 -137.059 407.92 -141.945 413.609 C-143.488 415.404 -145.048 417.182 -146.617 418.953 C-195.162 474.055 -224.489 545.684 -228 619 C-228.017 619.359 -228.017 619.359 -228.105 621.174 C-229.664 659.629 -220.11 702.045 -195 732 C-194.282 732.869 -193.564 733.738 -192.824 734.633 C-162.555 769.794 -113.428 782.32 -69 786 C-60.566 786.461 -52.131 786.439 -43.688 786.375 C-42.578 786.37 -41.468 786.366 -40.324 786.361 C28.729 786.023 105.06 767.457 156 718 C162.406 711.515 169.781 703.636 170 694 C169.273 691.094 168.665 689.563 166.375 687.625 C159.693 685.867 153.863 688.693 148.125 691.812 C146.727 692.538 145.327 693.26 143.926 693.98 C143.255 694.328 142.584 694.675 141.893 695.033 C139.397 696.308 136.882 697.504 134.312 698.625 C133.587 698.947 132.861 699.27 132.113 699.602 C129.198 700.151 127.601 699.337 125 698 C123 696 123 696 122.562 692.625 C123 689 123 689 125.09 687.004 C128.268 684.815 131.561 683.042 135 681.312 C142.471 677.443 149.193 672.939 156 668 C156.784 667.477 157.567 666.953 158.375 666.414 C164.005 662.554 168.847 657.629 170.543 650.82 C170.798 647.161 170.066 645.1 168.062 642.062 C163.079 638.706 159.067 638.462 153.195 639.492 C143.443 642.098 134.775 647.059 125.992 651.918 C121.722 654.237 119.007 655.626 114 655 C110.953 652.915 110.144 651.679 109.375 648.062 C110.226 643.894 112.704 642.379 116 640 C118.371 638.478 120.802 637.08 123.25 635.688 C128.88 632.41 133.983 628.874 138.949 624.629 C140.899 623.08 142.78 622.095 145 621 C146.062 619.25 146.062 619.25 147 617 C147.557 616.051 148.114 615.102 148.688 614.125 C150.246 610.415 150.317 608.786 149 605 C145.103 600.995 141.731 600.09 136.266 599.91 C112.218 601.125 90.83 615.688 72.965 630.723 C70.61 632.253 68.788 632.735 66 633 C63.717 631.858 61.81 630.81 60 629 C59.5 626.438 59.5 626.438 60 623 C62.053 620.069 64.514 617.566 67 615 C71.944 609.691 75.42 605.223 76.438 597.812 C76 595 76 595 74.5 592.688 C70.323 589.868 66.443 589.585 61.609 590.406 C49.006 593.735 39.171 602.327 29.754 610.965 C21.487 618.461 13.245 623.584 3 628 C2.215 628.357 1.43 628.714 0.621 629.082 C-12.716 634.38 -28.93 634.032 -42.25 629.312 C-55.735 623.334 -62.854 612.085 -68.969 599.141 C-70.145 595.559 -70.296 592.748 -70 589 C-68.375 586.562 -68.375 586.562 -66 585 C-63 584.5 -63 584.5 -60 585 C-56.269 588.03 -54.618 591.495 -52.625 595.812 C-47.827 605.727 -43.373 610.858 -33 615 C-20.965 618.841 -7.066 615.087 4 610.062 C9.86 606.987 14.308 603.292 19.033 598.699 C32.354 585.784 48.432 574.519 67.523 574.568 C74.93 574.767 80.573 576.501 85.863 581.902 C89.887 586.905 92 591.499 92 598 C92.969 597.481 93.939 596.961 94.938 596.426 C110.613 588.195 127.955 580.906 146 585.062 C153.102 587.401 158.844 591.767 163 598 C165.93 604.231 166.221 611.219 164.102 617.781 C163.15 619.914 162.15 621.968 161 624 C162.299 624.041 163.599 624.082 164.938 624.125 C171.406 624.858 176.145 628.027 180.605 632.672 C185.716 639.207 186.559 646.158 185.602 654.195 C183.895 662.151 179.459 668.16 174 674 C174.543 674.424 175.085 674.848 175.645 675.285 C181.304 679.925 184.475 683.557 185.344 690.91 C186.085 706.466 177.735 717.447 168 728.75 C126.816 773.758 58.404 793.79 0 801 C-0.933 801.117 -1.866 801.234 -2.827 801.355 C-29.962 804.591 -58.909 804.648 -86 801 C-86.482 800.936 -86.482 800.936 -88.919 800.609 C-126.261 795.404 -164.755 783.282 -192.801 757.043 C-194.668 755.308 -196.573 753.714 -198.562 752.125 C-228.159 726.916 -240.463 682.811 -243.594 645.617 C-249.455 560.779 -216.03 474.933 -161 411 C-157.844 407.477 -154.643 404 -151.42 400.538 C-149.979 398.977 -148.556 397.402 -147.137 395.82 C-142.693 390.88 -138.245 386.102 -133.141 381.828 C-130.977 379.98 -128.902 378.052 -126.827 376.105 C-120.226 369.926 -113.252 364.392 -106 359 C-106.161 358.279 -106.322 357.557 -106.487 356.814 C-112.311 330.416 -117.085 303.63 -117.203 276.516 C-117.209 275.458 -117.215 274.399 -117.22 273.309 C-117.23 271.081 -117.236 268.852 -117.24 266.624 C-117.25 263.3 -117.281 259.976 -117.312 256.652 C-117.408 237.423 -115.707 218.453 -111.375 199.688 C-111.121 198.579 -110.867 197.471 -110.606 196.329 C-102.79 163.485 -89.364 131.266 -67.301 105.361 C-64.652 102.191 -64 101.314 -64 97 C-65.906 95.027 -65.906 95.027 -68.5 92.938 C-80.589 82.507 -88.787 67.862 -91 52 C-92.34 33.42 -87.836 18.065 -75.75 3.688 C-55.423 -17.813 -22.077 -19.705 0 0 Z M222.895 37.332 C218.265 43.852 215.036 51.06 214 59 C214.771 59.554 215.542 60.109 216.336 60.68 C217.339 61.404 218.342 62.129 219.375 62.875 C220.373 63.594 221.37 64.314 222.398 65.055 C225 67 225 67 227 69 C229.627 68.805 230.696 68.341 232.457 66.363 C232.681 66.025 232.681 66.025 233.812 64.312 C237.551 59.04 241.961 54.54 248 52 C250.872 51.526 253.032 51.717 256 52 C258.062 53.625 258.062 53.625 259 56 C258.867 58.918 258.867 58.918 258 62 C255.785 64.012 255.785 64.012 253.062 65.688 C249.823 67.715 248.149 68.776 246 72 C249.629 73.21 253.218 73.534 257 73.938 C263.727 74.687 270.362 75.652 277 77 C277.818 75.587 278.629 74.169 279.438 72.75 C279.89 71.961 280.342 71.172 280.809 70.359 C284.406 63.236 284.28 52.822 282.246 45.16 C281.298 42.985 280.251 41.014 279 39 C278.402 37.948 277.804 36.896 277.188 35.812 C271.257 28.187 264.109 23.959 254.422 22.652 C241.618 22.189 231.05 27.728 222.895 37.332 Z " fill="#415FF5" transform="translate(422,285)"/>
<path d="M0 0 C11.722 6.014 18.841 19.267 23.145 31.164 C24.377 35.251 24.775 38.407 22.875 42.312 C20.263 44.663 18.489 44.93 15 45 C11.322 43.464 10.182 42.382 8.445 38.742 C7.994 37.457 7.554 36.168 7.125 34.875 C3.544 25.113 -1.286 18.751 -10 13 C-11.546 9.908 -11.294 7.406 -11 4 C-8.099 -0.525 -5.136 -0.856 0 0 Z " fill="#415FF5" transform="translate(389,322)"/>
<path d="M0 0 C0.716 -0.002 1.432 -0.005 2.169 -0.007 C3.676 -0.006 5.183 0.007 6.69 0.032 C8.993 0.066 11.293 0.053 13.596 0.033 C15.064 0.04 16.532 0.05 18 0.062 C18.686 0.058 19.371 0.053 20.077 0.047 C23.411 0.129 25.167 0.424 27.84 2.481 C29.919 5.284 30.362 7.145 30.434 10.629 C28.303 15.194 28.303 15.194 25.434 16.629 C20.778 16.912 16.122 16.943 11.458 16.979 C9.905 16.996 8.353 17.023 6.8 17.061 C4.556 17.116 2.315 17.138 0.07 17.152 C-0.275 17.164 -0.275 17.164 -2.02 17.221 C-5.873 17.204 -7.455 16.718 -10.505 14.284 C-12.566 11.629 -12.566 11.629 -13.191 8.629 C-11.703 1.485 -6.607 -0.128 0 0 Z " fill="#415FF5" transform="translate(830.56640625,325.37109375)"/>
<path d="M0 0 C0.358 -0.005 0.358 -0.005 2.171 -0.027 C3.685 -0.042 5.2 -0.051 6.715 -0.054 C9.025 -0.066 11.332 -0.116 13.641 -0.166 C15.115 -0.175 16.589 -0.183 18.062 -0.188 C18.749 -0.207 19.436 -0.227 20.143 -0.247 C23.983 -0.211 25.564 0.291 28.6 2.719 C30.664 5.371 30.664 5.371 31.289 8.371 C30.439 12.452 28.897 13.779 25.664 16.371 C22.926 16.86 20.823 17.053 18.098 17 C17.382 17.002 16.666 17.005 15.928 17.007 C14.421 17.006 12.914 16.993 11.407 16.968 C9.104 16.934 6.805 16.947 4.502 16.967 C3.034 16.96 1.566 16.95 0.098 16.938 C-0.245 16.94 -0.245 16.94 -1.98 16.953 C-5.311 16.871 -7.072 16.574 -9.746 14.523 C-11.791 11.756 -12.193 9.794 -12.336 6.371 C-10.285 0.218 -5.749 0.045 0 0 Z " fill="#415FF5" transform="translate(1088.3359375,325.62890625)"/>
<path d="M0 0 C11.249 8.267 17.345 18.496 20.125 32.188 C20.504 36.638 20.483 41.054 20.43 45.518 C20.426 47.492 20.422 49.466 20.419 51.44 C20.412 53.539 20.398 55.638 20.383 57.737 C20.352 62.13 20.35 66.522 20.352 70.915 C20.357 83.399 20.333 95.881 20.259 108.365 C20.218 115.277 20.206 122.188 20.225 129.101 C20.236 133.462 20.211 137.822 20.161 142.183 C20.133 145.537 20.157 148.891 20.173 152.245 C20.148 153.442 20.124 154.64 20.1 155.874 C20.182 161.96 20.635 165.405 25.037 169.803 C26.395 170.936 27.758 172.065 29.125 173.188 C40.962 188.754 45.422 208.014 42.841 227.312 C39.93 243.016 32.346 255.267 21.125 266.188 C20.506 266.804 19.888 267.42 19.25 268.055 C7.025 279.398 -11.175 284.635 -27.516 284.391 C-43.065 283.45 -58.184 277.676 -69.875 267.188 C-70.598 266.556 -71.321 265.924 -72.066 265.273 C-84.967 253.268 -91.878 237.272 -93.113 219.82 C-93.523 200.452 -87.917 183.761 -74.875 169.188 C-74.186 168.592 -73.496 167.997 -72.786 167.384 C-70.43 164.676 -70.374 163.434 -70.369 159.89 C-70.358 158.816 -70.347 157.743 -70.336 156.637 C-70.344 155.464 -70.352 154.291 -70.361 153.082 C-70.354 151.843 -70.347 150.603 -70.339 149.326 C-70.327 146.631 -70.321 143.936 -70.328 141.241 C-70.339 136.969 -70.321 132.698 -70.3 128.427 C-70.27 121.659 -70.258 114.891 -70.255 108.124 C-70.248 96.035 -70.219 83.947 -70.17 71.859 C-70.153 67.624 -70.148 63.389 -70.151 59.154 C-70.152 55.879 -70.14 52.603 -70.13 49.328 C-70.134 48.171 -70.139 47.014 -70.143 45.823 C-70.063 29.571 -66.859 16.399 -55.359 4.379 C-39.966 -9.199 -17.353 -10.952 0 0 Z M-48.875 20.188 C-53.957 28.299 -54.578 35.828 -54.455 45.208 C-54.455 46.581 -54.458 47.954 -54.463 49.327 C-54.468 52.26 -54.458 55.192 -54.436 58.125 C-54.402 62.765 -54.406 67.404 -54.416 72.044 C-54.432 81.884 -54.406 91.723 -54.375 101.562 C-54.342 112.208 -54.316 122.854 -54.339 133.5 C-54.347 138.111 -54.331 142.721 -54.297 147.332 C-54.281 150.197 -54.285 153.062 -54.295 155.927 C-54.295 157.886 -54.27 159.844 -54.245 161.803 C-54.311 171.373 -54.311 171.373 -57.3 174.415 C-58.15 175 -59 175.585 -59.875 176.188 C-70.729 185.965 -76.938 198.549 -77.863 213.148 C-77.924 228.857 -73.117 241.744 -62.121 253.074 C-50.747 263.776 -37.403 268.795 -21.762 268.438 C-6.9 267.15 3.684 261.592 14.125 251.188 C14.703 250.633 15.28 250.079 15.875 249.508 C24.485 240.494 27.991 227.807 28.375 215.625 C27.908 200.144 21.343 187.644 10.812 176.625 C8.125 174.188 8.125 174.188 6.125 174.188 C5.28 171.25 5.003 168.651 5.011 165.598 C5.012 165.14 5.012 165.14 5.012 162.819 C5.014 162.319 5.014 162.319 5.027 159.789 C5.028 159.259 5.028 159.259 5.032 156.579 C5.036 154.273 5.042 151.968 5.05 149.663 C5.063 145.988 5.069 142.313 5.074 138.638 C5.087 129.489 5.111 120.34 5.135 111.191 C5.155 103.491 5.171 95.79 5.181 88.09 C5.187 84.517 5.2 80.945 5.213 77.373 C5.23 70.644 5.189 63.916 5.125 57.188 C5.118 55.985 5.111 54.783 5.104 53.545 C5.074 49.899 5.009 46.256 4.934 42.612 C4.931 42.062 4.931 42.062 4.917 39.281 C4.682 30.731 2.468 24.151 -3.086 17.566 C-11.602 10.418 -17.01 8.579 -28.215 8.844 C-36.733 9.644 -43.267 13.819 -48.875 20.188 Z " fill="#415FF5" transform="translate(1054.875,370.8125)"/>
<path d="M0 0 C3.211 2.374 4.716 3.934 5.75 7.812 C4.952 11.202 4.224 12.156 1.949 14.668 C1.315 15.37 0.681 16.072 0.028 16.796 C-0.641 17.523 -1.311 18.251 -2 19 C-2.642 19.709 -3.284 20.417 -3.946 21.148 C-5.914 23.294 -7.92 25.399 -9.938 27.5 C-10.602 28.227 -11.267 28.954 -11.951 29.703 C-17.532 35.463 -17.532 35.463 -22.344 35.598 C-26 35 -26 35 -28.562 32.938 C-30.492 28.995 -30.136 27.23 -29 23 C-27.05 20.359 -24.731 18.209 -22.312 16 C-21.077 14.836 -19.844 13.669 -18.613 12.5 C-18.008 11.929 -17.403 11.358 -16.78 10.77 C-14.468 8.471 -12.399 6.013 -10.348 3.48 C-7.134 -0.049 -4.59 -0.643 0 0 Z " fill="#415FF5" transform="translate(889,407)"/>
<path d="M0 0 C1.007 -0.001 2.014 -0.001 3.051 -0.002 C4.096 0.018 5.142 0.038 6.219 0.059 C7.264 0.052 8.31 0.044 9.387 0.037 C18.177 0.11 18.177 0.11 21.719 3.496 C22.922 7.187 23.063 8.792 21.344 12.309 C19.719 14.496 19.719 14.496 18.719 15.496 C14.717 15.64 10.724 15.538 6.719 15.496 C6.884 18.466 6.884 18.466 7.719 33.496 C10.359 33.496 12.999 33.496 15.719 33.496 C18.632 34.763 20.185 35.792 22.094 38.309 C22.967 41.366 22.561 43.452 21.719 46.496 C20.555 48.168 20.555 48.168 18.719 49.496 C14.686 49.901 10.782 49.627 6.719 49.496 C6.719 55.766 6.719 62.036 6.719 68.496 C8.616 68.393 10.514 68.29 12.469 68.184 C18.314 68.19 18.314 68.19 21.531 70.621 C23.009 74.198 22.963 75.842 21.719 79.496 C20.344 81.871 20.344 81.871 17.719 83.496 C14.089 83.496 10.459 83.496 6.719 83.496 C6.719 97.686 6.719 111.876 6.719 126.496 C10.019 127.156 13.319 127.816 16.719 128.496 C26.457 132.42 32.442 138.934 36.719 148.496 C39.345 156.576 38.448 165.686 34.906 173.285 C30.171 182.101 24.091 187.345 14.406 190.434 C4.155 192.825 -4.428 190.978 -13.281 185.496 C-19.263 181.69 -22.933 175.682 -25.656 169.246 C-27.228 159.815 -27.29 150.886 -22.281 142.496 C-19.354 138.639 -16.336 134.771 -12.187 132.197 C-10.281 130.496 -10.281 130.496 -9.785 128.17 C-9.786 127.249 -9.788 126.328 -9.789 125.379 C-9.781 124.32 -9.773 123.262 -9.765 122.171 C-9.776 121.01 -9.787 119.849 -9.799 118.653 C-9.795 117.43 -9.791 116.207 -9.787 114.947 C-9.781 112.286 -9.782 109.627 -9.795 106.966 C-9.816 102.76 -9.806 98.554 -9.791 94.348 C-9.762 84.659 -9.773 74.97 -9.784 65.281 C-9.794 56.403 -9.795 47.526 -9.764 38.649 C-9.751 34.467 -9.757 30.286 -9.777 26.105 C-9.788 22.893 -9.774 19.681 -9.764 16.469 C-9.775 15.31 -9.786 14.151 -9.798 12.957 C-9.79 11.895 -9.782 10.834 -9.773 9.74 C-9.775 8.819 -9.776 7.897 -9.778 6.948 C-8.683 1.545 -5.114 -0.01 0 0 Z " fill="#415FF5" transform="translate(1024.28125,427.50390625)"/>
<path d="M0 0 C2.824 1.601 3.021 3.067 4 6.188 C4 11.38 2.057 13.957 -1 18 C-1.722 19.011 -2.444 20.021 -3.188 21.062 C-12.11 31.323 -26.846 37.987 -40.21 39.201 C-42.621 39.357 -45.023 39.444 -47.438 39.5 C-48.207 39.531 -48.977 39.561 -49.77 39.593 C-53.984 39.594 -55.559 39.344 -59 36.66 C-61 34 -61 34 -61.562 30.938 C-60.843 27.182 -60.083 26.263 -57 24 C-53.876 23.333 -50.747 23.22 -47.562 23.062 C-35.123 22.116 -24.041 19.223 -15 10 C-13.251 7.67 -11.681 5.324 -10.191 2.82 C-7.698 -0.99 -4.192 -0.294 0 0 Z " fill="#415FF5" transform="translate(518,432)"/>
<path d="M0 0 C3.083 1.079 3.742 2.167 5.5 4.875 C6.42 7.082 6.42 7.082 7.184 9.473 C7.47 10.352 7.756 11.231 8.05 12.137 C8.343 13.061 8.636 13.985 8.938 14.938 C9.552 16.835 10.168 18.732 10.785 20.629 C11.079 21.537 11.373 22.444 11.676 23.379 C12.937 27.199 14.334 30.963 15.773 34.719 C18.801 43.703 18.679 53.367 14.5 61.875 C11.552 66.68 7.798 69.173 2.5 70.875 C-3.36 71.796 -8.489 71.227 -13.676 68.281 C-18.058 64.903 -21.553 60.388 -22.5 54.875 C-24.61 36.433 -15.82 16.892 -5.5 1.875 C-2.5 -0.125 -2.5 -0.125 0 0 Z M-2.5 23.875 C-7.107 32.432 -12.522 42.887 -10.5 52.875 C-8.669 56.13 -7.506 57.462 -4.062 58.875 C-0.486 58.875 0.848 58.312 3.5 55.875 C6.803 48.91 4.875 42.806 2.5 35.875 C2.138 34.764 1.776 33.653 1.402 32.508 C0.455 29.623 -0.513 26.747 -1.5 23.875 C-1.83 23.875 -2.16 23.875 -2.5 23.875 Z " fill="#415FF5" transform="translate(380.5,443.125)"/>
<path d="M0 0 C3.042 2.113 3.914 3.765 5.188 7.25 C4.974 11.514 4.529 11.861 1.688 14.75 C-2.234 18.748 -2.778 21.828 -3.5 27.258 C-4.666 33.651 -7.886 38.439 -12.938 42.438 C-18.916 46.464 -24.832 48.124 -32 47 C-39.042 44.498 -43.447 41.341 -47.25 34.875 C-48 33 -48 33 -48 30 C-48.866 29.918 -49.733 29.835 -50.625 29.75 C-54.648 28.856 -56.908 27.732 -60 25 C-61.125 21.562 -61.125 21.562 -61 18 C-59.237 14.881 -58.126 13.349 -54.668 12.277 C-51.63 11.961 -49.817 12.46 -46.938 13.438 C-36.643 16.422 -27.656 15.675 -18 11 C-14.849 8.945 -12.717 6.698 -10.375 3.812 C-7.274 0.14 -4.693 -0.572 0 0 Z " fill="#415FF5" transform="translate(515,496)"/>
<path d="M0 0 C2.562 2.188 2.562 2.188 5 5 C12.485 11.974 20.642 15.156 30.883 15.117 C33.041 14.998 35.064 14.643 37.188 14.25 C41 14 41 14 43.938 15.562 C46.465 18.55 47.16 20.079 47 24 C44.493 27.677 42.031 29.241 37.812 30.312 C24.234 32.643 11.399 29.82 0 22 C-9.572 13.755 -9.572 13.755 -10.301 9.062 C-10.332 3.624 -10.332 3.624 -8.938 1 C-5.769 -0.635 -3.499 -0.483 0 0 Z " fill="#415FF5" transform="translate(617,506)"/>
<path d="M0 0 C3.438 0.688 3.438 0.688 4.986 2.805 C7.547 7.89 9.392 13.243 11.309 18.595 C12.052 20.659 12.819 22.714 13.586 24.77 C17.428 35.31 20.562 46.439 16.648 57.461 C13.887 62.539 9.558 65.605 4.5 68.188 C-1.725 69.204 -7.608 68.477 -12.992 65.059 C-17.776 60.881 -20.221 55.35 -20.801 49.129 C-21.097 37.65 -13.385 2.583 0 0 Z M-1.562 23.688 C-6.03 32.162 -9.699 39.896 -8.562 49.688 C-7.5 52.688 -7.5 52.688 -5.562 54.688 C-2.125 55.75 -2.125 55.75 1.438 55.688 C4.515 53.744 5.272 52.175 6.438 48.75 C7.223 40.471 2.412 31.274 -0.562 23.688 C-0.892 23.688 -1.223 23.688 -1.562 23.688 Z " fill="#415FF5" transform="translate(370.5625,555.3125)"/>
<path d="M0 0 C6.578 3.727 10.117 8.758 12.625 15.812 C14.585 23.406 13.961 31.282 10.039 38.152 C5.414 44.475 -0.512 48.776 -8.312 50 C-16.456 50.49 -23.132 48.381 -29.312 43 C-34.847 35.958 -37.185 28.985 -36.312 20 C-34.954 13.413 -32.122 7.745 -27.312 3 C-18.954 -2.477 -9.307 -4.202 0 0 Z M-20.312 17 C-21.932 21.859 -22.091 26.21 -20.062 30.875 C-17.406 34.101 -15.535 34.814 -11.438 35.438 C-7.015 34.818 -5.457 33.144 -2.312 30 C-1.106 26.381 -0.99 23.808 -1.312 20 C-4.389 14.462 -4.389 14.462 -7.312 13 C-13.135 12.523 -16.098 12.53 -20.312 17 Z " fill="#415FF5" transform="translate(549.3125,637)"/>
<path d="M0 0 C5.512 4.159 9.313 9.272 11 16 C12.119 25.013 11.424 32.543 6 40 C1.697 45.029 -3.473 47.891 -10 49 C-17.465 49.278 -24.1 47.484 -29.723 42.461 C-35.908 35.805 -37.616 29.016 -37.344 20.027 C-36.487 12.48 -33.566 6.497 -27.91 1.406 C-19.868 -4.515 -8.648 -5.052 0 0 Z M-21 15 C-22.668 18.615 -23.358 22.096 -22.617 26.035 C-21.509 29.035 -20.092 30.921 -17.688 33 C-14.215 34.292 -12.514 34.171 -9 33 C-5.911 30.598 -4.314 28.883 -3 25.188 C-3 20.969 -3.891 17.66 -6 14 C-11.465 9.516 -15.889 10.444 -21 15 Z " fill="#415FF5" transform="translate(757,638)"/>
<path d="M0 0 C4.046 3.246 6.54 5.666 8.25 10.625 C8 14 8 14 6 17 C3 19 3 19 -0.312 19.25 C-3.85 18.051 -4.874 17.394 -7.438 14.938 C-20.594 2.523 -39.572 -1.32 -57.039 -1.148 C-75.384 -0.461 -93.941 4.714 -108.375 16.438 C-111.153 18.624 -112.062 19.01 -115.75 19.625 C-119 19 -119 19 -121.438 17.375 C-123.484 14.265 -123.598 12.663 -123 9 C-113.168 -5.491 -90.353 -12.508 -74 -16 C-47.985 -20.739 -21.198 -15.975 0 0 Z " fill="#415FF5" transform="translate(650,772)"/>
<path d="M0 0 C1.812 1.062 1.812 1.062 3 3 C3.438 6.5 3.438 6.5 3 10 C1.312 12 1.312 12 -1 13 C-4.37 12.759 -5.588 12.412 -8 10 C-8.554 3.904 -8.554 3.904 -6.812 1.062 C-4.34 -0.387 -2.821 -0.423 0 0 Z " fill="#415FF5" transform="translate(270,777)"/>
<path d="M0 0 C2.155 3.233 2.469 4.252 2 8 C0.875 9.812 0.875 9.812 -1 11 C-4.149 11.394 -6.119 11.529 -8.875 9.875 C-10.547 7.089 -10.464 5.18 -10 2 C-6.965 -1.619 -4.327 -1.317 0 0 Z " fill="#415FF5" transform="translate(308,782)"/>
<path d="M0 0 C1.875 1.688 1.875 1.688 3 4 C2.743 6.698 2.208 8.584 1 11 C-1.99 12.051 -3.401 12.275 -6.312 10.938 C-8 9 -8 9 -8.438 6 C-8 3 -8 3 -6.812 1.125 C-4.32 -0.422 -2.88 -0.504 0 0 Z " fill="#415FF5" transform="translate(285,808)"/>
<path d="M0 0 C2.161 3.242 2.642 4.237 2 8 C-0.188 10.375 -0.188 10.375 -3 12 C-6.423 11.841 -7.563 11.437 -10 9 C-10.375 5.562 -10.375 5.562 -10 2 C-7.02 -1.668 -4.313 -1.313 0 0 Z " fill="#415FF5" transform="translate(254,813)"/>
<path d="M0 0 C3.562 0.375 3.562 0.375 5.562 2.062 C6.85 5.04 6.722 6.359 5.562 9.375 C3.812 11.25 3.812 11.25 1.562 12.375 C-1.808 12.134 -3.025 11.787 -5.438 9.375 C-5.688 5.875 -5.688 5.875 -5.438 2.375 C-3.438 0.375 -3.438 0.375 0 0 Z " fill="#415FF5" transform="translate(305.4375,831.625)"/>
<path d="M0 0 C2.161 3.242 2.642 4.237 2 8 C-0.188 10.375 -0.188 10.375 -3 12 C-6.26 12 -7.497 11.47 -9.875 9.25 C-11 7 -11 7 -10.938 4.438 C-8.804 -1.11 -5.406 -1.645 0 0 Z " fill="#415FF5" transform="translate(281,844)"/>
<path d="M0 0 C3.079 1.078 4.045 1.965 5.5 4.875 C5.422 8.074 4.937 9.406 2.75 11.75 C0.5 12.875 0.5 12.875 -2.062 12.812 C-5.093 11.647 -6.14 10.834 -7.5 7.875 C-6.875 4.75 -6.875 4.75 -5.5 1.875 C-2.5 -0.125 -2.5 -0.125 0 0 Z " fill="#415FF5" transform="translate(241.5,856.125)"/>
<path d="M0 0 C1.875 1.125 1.875 1.125 3 3 C3.394 6.149 3.529 8.119 1.875 10.875 C-0.881 12.529 -2.851 12.394 -6 12 C-7.875 10.875 -7.875 10.875 -9 9 C-9.394 5.851 -9.529 3.881 -7.875 1.125 C-5.119 -0.529 -3.149 -0.394 0 0 Z " fill="#415FF5" transform="translate(273,876)"/>
<path d="M0 0 C1.5 2.312 1.5 2.312 2 5 C1 7.75 1 7.75 -1 10 C-4.188 10.812 -4.188 10.812 -7 11 C-9.125 8.875 -9.125 8.875 -11 6 C-10.461 2.561 -9.893 0.739 -7.188 -1.5 C-4.097 -2.206 -2.693 -1.63 0 0 Z " fill="#415FF5" transform="translate(301,892)"/>
<path d="M0 0 C1 1 1 1 1.25 4.375 C1 8 1 8 -0.125 9.938 C-2.89 11.504 -4.882 11.39 -8 11 C-9.875 9.875 -9.875 9.875 -11 8 C-11.403 4.779 -11.627 2.866 -9.688 0.188 C-5.902 -2.476 -3.959 -1.875 0 0 Z " fill="#415FF5" transform="translate(250,906)"/>
<path d="M0 0 C1.938 1.625 1.938 1.625 3 4 C2.78 7.673 2.63 9.37 0 12 C-4.053 12.345 -5.548 12.302 -9 10 C-9.979 7.139 -10.221 5.613 -9.188 2.75 C-6.843 -0.706 -3.897 -0.398 0 0 Z " fill="#415FF5" transform="translate(279,930)"/>
<path d="M0 0 C2 3 2 3 1.75 6.062 C1 9 1 9 -1 11 C-4.103 11.33 -6.158 11.505 -8.875 9.875 C-10.529 7.119 -10.394 5.149 -10 2 C-7.656 -2.275 -4.201 -1.069 0 0 Z " fill="#415FF5" transform="translate(735,932)"/>
<path d="M0 0 C2 2 2 2 2.375 5.438 C2 9 2 9 0.312 11 C-2.609 12.263 -4.018 12.02 -7 11 C-9 9 -9 9 -9.312 5.562 C-9 2 -9 2 -7.875 0 C-5.011 -1.527 -3.047 -0.843 0 0 Z " fill="#415FF5" transform="translate(765,956)"/>
<path d="M0 0 C1.875 1.125 1.875 1.125 3 3 C3.394 6.149 3.529 8.119 1.875 10.875 C-0.881 12.529 -2.851 12.394 -6 12 C-7.875 10.875 -7.875 10.875 -9 9 C-9.394 5.851 -9.529 3.881 -7.875 1.125 C-5.119 -0.529 -3.149 -0.394 0 0 Z " fill="#415FF5" transform="translate(720,967)"/>
<path d="M0 0 C2.998 1.153 4.003 2.069 5.438 4.938 C5.301 7.738 4.749 9.418 3.312 11.812 C1.438 12.938 1.438 12.938 -2.125 12.875 C-5.562 11.938 -5.562 11.938 -7.062 10.188 C-7.696 7.336 -7.551 5.692 -6.562 2.938 C-4.327 0.543 -3.296 -0.08 0 0 Z " fill="#415FF5" transform="translate(742.5625,986.0625)"/>
<path d="M0 0 C2 3 2 3 1.75 6.625 C1.503 7.739 1.255 8.852 1 10 C-2.043 11.522 -4.654 11.239 -8 11 C-10.314 7.53 -10.51 6.082 -10 2 C-6.965 -1.619 -4.327 -1.317 0 0 Z " fill="#415FF5" transform="translate(778,993)"/>
<path d="M0 0 C2.161 3.242 2.642 4.237 2 8 C-0.125 10.438 -0.125 10.438 -3 12 C-8.073 10.927 -8.073 10.927 -10 9 C-10.455 2.857 -10.455 2.857 -8.938 0 C-5.772 -1.634 -3.35 -0.853 0 0 Z " fill="#415FF5" transform="translate(735,1021)"/>
<path d="M0 0 C2.161 3.242 2.642 4.237 2 8 C-0.125 10.438 -0.125 10.438 -3 12 C-8.073 10.927 -8.073 10.927 -10 9 C-10.455 2.857 -10.455 2.857 -8.938 0 C-5.772 -1.634 -3.35 -0.853 0 0 Z " fill="#415FF5" transform="translate(766,1031)"/>
</svg>
