<?xml version="1.0" encoding="UTF-8"?>
<!-- Generator: visioncortex VTracer 0.6.12 -->
<svg version="1.1" xmlns="http://www.w3.org/2000/svg" width="1254" height="1254">
<path d="M0 0 C0.316 0.141 0.316 0.141 1.915 0.854 C18.742 8.429 32.854 19.161 46 32 C46.785 32.712 47.57 33.423 48.379 34.156 C73.071 57.126 89.443 95.48 91.203 128.851 C91.326 132.984 91.335 137.115 91.312 141.25 C91.31 141.978 91.308 142.706 91.306 143.456 C91.255 154.243 90.837 164.534 88 175 C87.901 175.385 87.901 175.385 87.398 177.333 C76.666 218.284 51.741 252.832 15.254 274.586 C1.505 282.518 -12.626 288.112 -28 292 C-28.66 292.178 -29.32 292.356 -30 292.539 C-65.035 301.719 -106.114 293.728 -137 276 C-137.664 275.621 -138.329 275.242 -139.013 274.852 C-148.851 269.163 -157.674 262.728 -166 255 C-166.575 254.469 -167.15 253.938 -167.742 253.391 C-195.272 227.664 -213.884 191.328 -216.221 153.411 C-216.339 149.625 -216.38 145.85 -216.375 142.062 C-216.374 141.389 -216.373 140.716 -216.372 140.023 C-216.191 97.502 -197.903 59.254 -167.952 29.533 C-124.292 -12.729 -55.467 -25.354 0 0 Z M-169.789 52.23 C-193.187 81.54 -205.057 117.994 -201.782 155.5 C-198.541 182.796 -187.364 210.432 -169 231 C-168.269 231.851 -167.538 232.702 -166.785 233.578 C-142.372 261.553 -108.629 277.192 -72 281 C-34.413 283 1.658 270.849 30 246 C54.845 223.65 70.753 194.007 76 161 C76.066 160.596 76.066 160.596 76.398 158.551 C81.057 122.475 70.379 85.807 48.68 56.91 C46.511 54.216 44.28 51.599 42 49 C41.282 48.149 40.564 47.298 39.824 46.422 C16.096 18.943 -18.508 5.055 -54 2 C-98.073 -1.064 -141.078 19.321 -169.789 52.23 Z " fill="#415FF5" transform="translate(886,278)"/>
<path d="M0 0 C0.805 -0.004 1.609 -0.008 2.438 -0.012 C4.134 -0.014 5.829 -0.007 7.524 0.01 C10.117 0.031 12.706 0.01 15.299 -0.016 C16.949 -0.013 18.6 -0.008 20.25 0 C21.023 -0.008 21.796 -0.016 22.592 -0.025 C25.951 0.034 28.184 0.292 31.04 2.116 C33.111 5.409 33.104 7.826 33.168 11.703 C33.185 12.386 33.201 13.068 33.218 13.771 C33.266 15.941 33.288 18.111 33.309 20.281 C33.337 21.757 33.367 23.232 33.398 24.707 C33.472 28.315 33.522 31.923 33.559 35.531 C33.97 35.523 33.97 35.523 36.05 35.484 C39.782 35.421 43.514 35.382 47.246 35.344 C47.893 35.331 47.893 35.331 51.166 35.268 C52.413 35.258 53.66 35.248 54.945 35.238 C56.092 35.223 57.239 35.207 58.421 35.191 C62.196 35.6 64.855 36.828 67.559 39.531 C67.697 42.369 67.772 45.18 67.797 48.02 C67.805 48.874 67.813 49.729 67.821 50.61 C67.835 52.423 67.846 54.236 67.854 56.05 C67.871 58.822 67.915 61.593 67.959 64.365 C67.969 66.125 67.978 67.885 67.984 69.645 C68.002 70.474 68.019 71.303 68.037 72.158 C68.024 75.81 67.941 77.923 65.967 81.062 C62.699 83.056 60.42 82.987 56.605 82.922 C55.945 82.916 55.285 82.911 54.605 82.905 C52.505 82.882 50.408 82.832 48.309 82.781 C46.882 82.761 45.454 82.743 44.027 82.727 C40.537 82.683 37.048 82.614 33.559 82.531 C33.549 83.48 33.54 84.428 33.53 85.405 C33.486 88.932 33.425 92.457 33.351 95.983 C33.323 97.508 33.302 99.033 33.288 100.558 C33.266 102.753 33.219 104.946 33.168 107.141 C33.147 108.46 33.126 109.78 33.104 111.14 C32.559 114.531 32.559 114.531 31.04 116.96 C27.532 119.181 24.274 119.105 20.25 119.062 C19.848 119.064 19.848 119.064 17.814 119.074 C16.117 119.077 14.42 119.069 12.723 119.053 C10.133 119.031 7.545 119.053 4.955 119.078 C3.303 119.075 1.652 119.07 0 119.062 C-0.771 119.071 -1.542 119.079 -2.336 119.087 C-5.868 119.026 -8.297 118.607 -11.438 116.96 C-14.209 113.601 -14.015 111.458 -13.93 107.141 C-13.923 106.436 -13.916 105.731 -13.908 105.005 C-13.88 102.763 -13.818 100.523 -13.754 98.281 C-13.729 96.758 -13.706 95.234 -13.686 93.711 C-13.631 89.984 -13.544 86.258 -13.441 82.531 C-13.883 82.544 -13.883 82.544 -16.116 82.611 C-19.406 82.696 -22.694 82.759 -25.984 82.806 C-27.405 82.831 -28.826 82.865 -30.247 82.908 C-32.295 82.969 -34.342 82.998 -36.391 83.02 C-37.006 83.033 -37.006 83.033 -40.12 83.099 C-43.441 82.531 -43.441 82.531 -46.343 80.512 C-48.984 76.76 -49.149 73.775 -49.07 69.344 C-49.073 68.564 -49.075 67.784 -49.078 66.98 C-49.077 65.336 -49.063 63.692 -49.038 62.048 C-49.004 59.539 -49.018 57.033 -49.037 54.523 C-49.03 52.922 -49.021 51.32 -49.008 49.719 C-49.013 48.973 -49.018 48.227 -49.023 47.458 C-48.941 43.823 -48.54 41.688 -46.594 38.582 C-42.986 35.144 -39.8 35.412 -35.023 35.434 C-33.77 35.437 -32.516 35.44 -31.225 35.443 C-30.569 35.448 -30.569 35.448 -27.254 35.469 C-25.919 35.474 -24.583 35.478 -23.248 35.482 C-19.979 35.494 -16.71 35.511 -13.441 35.531 C-13.468 34.613 -13.494 33.695 -13.521 32.749 C-13.606 29.335 -13.669 25.921 -13.716 22.506 C-13.741 21.03 -13.775 19.554 -13.819 18.078 C-13.879 15.952 -13.908 13.829 -13.93 11.703 C-13.956 10.425 -13.982 9.148 -14.009 7.831 C-13.441 4.531 -13.441 4.531 -11.438 2.116 C-7.594 0.083 -4.247 -0.045 0 0 Z " fill="#415FF5" transform="translate(813.44140625,323.46875)"/>
<path d="M0 0 C12.122 8.904 18.761 19.735 21.344 34.426 C23.059 50.584 17.179 66.134 7.406 78.801 C6.398 80.02 5.382 81.233 4.344 82.426 C5.184 82.653 6.025 82.88 6.891 83.113 C32.68 92.916 52.029 122.658 65.344 145.426 C71.567 143.789 77.708 142.021 83.809 139.978 C105.822 132.65 128.338 128.226 151.344 125.426 C152.314 125.307 153.284 125.189 154.284 125.066 C217.414 117.746 284.477 128.047 344.344 148.426 C345.264 148.739 346.185 149.052 347.134 149.375 C352.592 151.258 357.987 153.27 363.344 155.426 C364.07 155.717 364.796 156.009 365.544 156.31 C389.976 166.284 412.9 180.348 431.761 198.882 C433.394 200.475 435.058 202.031 436.727 203.586 C457.279 223.044 477.093 250.68 484.344 278.426 C485.008 278.559 485.671 278.691 486.355 278.828 C494.344 280.426 494.344 280.426 496.613 280.992 C505.61 282.421 513.49 280.412 522.172 278.115 C529.511 276.296 536.22 275.59 543.156 279.113 C548.136 282.726 550.378 286.132 551.344 292.176 C551.784 299.135 549.248 305.26 545.031 310.738 C537.083 318.687 526.043 324.057 514.665 324.539 C513.727 324.534 512.79 324.529 511.824 324.523 C510.803 324.52 509.781 324.517 508.729 324.514 C507.673 324.505 506.618 324.497 505.531 324.488 C504.457 324.484 503.382 324.479 502.275 324.475 C499.631 324.463 496.988 324.445 494.344 324.426 C493.684 328.056 493.024 331.686 492.344 335.426 C494.138 335.653 495.933 335.88 497.781 336.113 C517.863 339.257 537.567 346.219 550.246 362.934 C551.789 365.375 553.092 367.824 554.344 370.426 C554.568 370.865 554.568 370.865 555.703 373.086 C565.042 393.054 563.887 416.054 557.219 436.613 C551.037 452.715 540.228 466.172 524.344 473.426 C483.511 488.108 423.545 475.08 385.156 458.051 C384.402 457.693 383.648 457.334 382.87 456.965 C377.462 454.5 373.241 453.982 367.344 454.426 C366.408 454.487 365.472 454.548 364.507 454.611 C360.235 454.913 355.967 455.269 351.699 455.627 C334.641 456.98 317.57 457.486 300.461 457.461 C296.661 457.469 292.862 457.479 289.062 457.489 C286.468 457.489 283.873 457.475 281.279 457.45 C277.464 457.417 273.651 457.434 269.836 457.461 C269.259 457.45 269.259 457.45 266.339 457.393 C258.503 457.51 258.503 457.51 255.126 460.177 C253.378 462.183 251.879 464.256 250.344 466.426 C232.629 483.015 205.987 490.723 182.344 492.426 C181.533 492.485 180.722 492.544 179.887 492.605 C161.876 493.207 143.036 487.691 129.328 475.812 C124.106 470.88 119.701 465.793 116.344 459.426 C116.344 458.766 116.344 458.106 116.344 457.426 C115.601 457.43 114.859 457.435 114.094 457.439 C32.459 457.905 32.459 457.905 -4.617 453.793 C-13.638 452.937 -19.325 454.076 -27.719 457.488 C-47.584 465.227 -67.848 470.838 -88.656 475.426 C-89.55 475.623 -90.444 475.82 -91.365 476.023 C-132.712 484.948 -182.539 489.359 -220.281 466.113 C-246.717 448.502 -263.187 423.936 -269.906 393.113 C-274.429 367.684 -269.719 343.23 -255.699 321.375 C-242.485 302.865 -225.375 291.133 -205.656 280.426 C-205.913 279.838 -206.169 279.25 -206.434 278.645 C-214.623 259.453 -222.257 240.28 -224.656 219.426 C-225.299 219.498 -225.943 219.57 -226.605 219.645 C-244.337 221.466 -261.083 220.896 -275.906 209.801 C-284.865 202.109 -291.716 192.289 -292.859 180.3 C-293.8 164.628 -290.338 154.161 -281.469 141.238 C-271.247 131.016 -258.252 126.344 -244.031 126.176 C-230.143 126.184 -217.835 130.998 -205.656 137.426 C-205.416 136.725 -205.177 136.023 -204.93 135.301 C-195.591 114.218 -172.821 97.843 -153.656 86.426 C-153.089 86.085 -152.522 85.743 -151.937 85.392 C-131.047 73.013 -106.795 66.168 -82.656 64.426 C-82.718 63.291 -82.78 62.157 -82.844 60.988 C-82.815 42.899 -76.772 23.558 -64.445 10.078 C-58.353 4.452 -51.361 -0.453 -43.656 -3.574 C-43.301 -3.723 -43.301 -3.723 -41.504 -4.477 C-27.844 -9.409 -12.38 -7.337 0 0 Z M-55.41 22.68 C-65.938 35.551 -68.012 50.53 -68.191 66.594 C-68.21 67.56 -68.23 68.527 -68.25 69.523 C-68.257 70.395 -68.264 71.266 -68.271 72.164 C-68.656 74.426 -68.656 74.426 -69.836 76.17 C-72.278 77.855 -74.246 78.063 -77.188 78.418 C-78.299 78.563 -79.41 78.708 -80.556 78.857 C-81.744 79.003 -82.932 79.15 -84.156 79.301 C-123.101 84.609 -160.598 101.124 -185.656 132.426 C-205.177 158.15 -214.276 189.143 -209.883 221.286 C-206.865 240.178 -199.942 257.284 -191.656 274.426 C-187.687 273.867 -183.972 272.969 -180.151 271.763 C-166.88 267.573 -152.773 264.192 -138.812 263.797 C-133.333 262.854 -129.683 258.709 -125.844 254.988 C-89.944 221.186 -40.089 199.043 9.52 200.137 C27.279 200.83 48.481 204.877 62.219 216.953 C64.344 219.426 64.344 219.426 64.906 222.551 C64.344 225.426 64.344 225.426 62.719 227.363 C59.483 228.811 57.779 228.24 54.344 227.426 C52.123 226.39 49.936 225.279 47.781 224.113 C20.112 209.756 -13.067 212.555 -42.047 221.549 C-56.963 226.56 -71.302 233.109 -84.656 241.426 C-85.695 242.07 -86.734 242.715 -87.805 243.379 C-99.404 250.868 -109.997 259.562 -120.035 269.016 C-125.189 273.755 -128.433 276.372 -135.387 277.188 C-174.536 282.012 -213.142 293.227 -239.656 324.426 C-253.592 342.93 -258.814 364.68 -256.266 387.492 C-252.492 411.464 -239.133 433.862 -219.656 448.426 C-199.095 462.743 -176.366 467.655 -151.656 467.676 C-150.949 467.676 -150.242 467.677 -149.513 467.678 C-64.806 467.55 30.628 427.412 91.344 368.426 C92.146 367.65 92.947 366.874 93.773 366.074 C109.701 349.595 114.998 329.272 114.68 306.902 C113.645 277.983 98.388 249.87 85.941 224.465 C85.666 223.901 85.666 223.901 84.274 221.046 C83.222 218.895 82.161 216.749 81.089 214.608 C78.582 209.498 76.557 205.157 76.344 199.426 C77.281 196.988 77.281 196.988 79.344 195.426 C82.099 195.095 84.55 195.243 87.344 195.426 C87.62 196.144 87.897 196.863 88.182 197.604 C89.311 200.345 90.571 202.946 91.926 205.582 C137.987 295.993 137.987 295.993 124.312 341.887 C119.254 356.003 111.416 367.49 101.344 378.426 C100.614 379.226 99.885 380.027 99.133 380.852 C76.012 405.046 43.125 423.862 13.344 438.426 C17.026 440.745 20.717 440.862 24.945 441.059 C25.715 441.1 26.484 441.142 27.277 441.185 C29.841 441.318 32.404 441.436 34.969 441.551 C35.409 441.572 35.409 441.572 37.636 441.679 C61.193 442.795 84.767 442.616 108.344 442.426 C108.189 441.16 108.034 439.894 107.875 438.589 C107.788 437.877 107.701 437.165 107.611 436.431 C107.301 434.108 106.85 431.839 106.344 429.551 C104.195 419.049 102.713 406.948 105.344 396.426 C107.031 394.426 107.031 394.426 109.344 393.426 C113.017 393.646 114.713 393.795 117.344 396.426 C117.599 398.57 117.599 398.57 117.617 401.238 C117.635 402.222 117.652 403.207 117.67 404.221 C117.686 405.278 117.702 406.336 117.719 407.426 C118.349 427.838 122.321 447.315 137.137 462.383 C146.884 471.406 157.889 476.69 171.344 476.426 C171.179 475.168 171.014 473.91 170.844 472.613 C169.715 462.026 169.182 451.303 176.094 442.488 C180.261 438.147 184.806 436.317 190.781 435.988 C194.747 436.199 198.274 436.707 201.77 438.664 C204.704 441.948 204.424 446.223 204.789 450.457 C205.264 454.837 206.68 458.68 208.344 462.738 C208.606 463.39 208.867 464.042 209.137 464.714 C211.064 469.286 211.064 469.286 213.344 470.426 C215.969 469.488 215.969 469.488 218.344 468.426 C217.028 463.376 215.681 458.355 213.996 453.414 C213.765 452.723 213.534 452.032 213.296 451.32 C212.838 449.963 212.367 448.61 211.882 447.262 C210.169 442.128 210.301 438.624 211.344 433.426 C213.824 428.556 216.139 426.161 221.344 424.426 C227.946 423.398 233.243 424.52 239.078 427.73 C244.076 431.47 246.653 436.932 249.344 442.426 C250.004 442.426 250.664 442.426 251.344 442.426 C251.993 440.844 252.638 439.26 253.281 437.676 C253.641 436.794 254.001 435.912 254.371 435.004 C257.876 425.713 257.264 415.739 253.785 406.516 C248.287 394.729 240.031 384.976 231.344 375.426 C230.78 374.805 230.215 374.185 229.634 373.545 C223.444 366.77 217.125 360.124 210.656 353.613 C210.163 353.116 209.67 352.618 209.162 352.105 C206.976 349.928 204.924 348.146 202.344 346.426 C201.339 343.125 200.992 341.262 202.344 338.051 C204.344 336.426 204.344 336.426 207.531 335.738 C216.418 337.341 223.448 347.344 229.707 353.604 C231.27 355.164 232.841 356.717 234.412 358.27 C250.882 374.646 269.541 395.24 269.617 419.75 C269.609 420.592 269.602 421.434 269.594 422.301 C269.601 423.135 269.609 423.969 269.617 424.828 C269.598 430.893 268.725 436.526 267.344 442.426 C304.691 442.616 304.691 442.616 322.469 441.988 C323.029 441.969 323.029 441.969 325.866 441.869 C329.027 441.745 332.185 441.595 335.344 441.426 C336.525 441.364 337.707 441.302 338.925 441.238 C339.508 441.201 339.508 441.201 342.461 441.016 C343.517 440.951 344.572 440.887 345.66 440.82 C348.344 440.426 348.344 440.426 351.344 438.426 C350.498 437.687 349.653 436.949 348.781 436.188 C332.62 421.843 320.722 404.118 319.18 382.082 C318.844 372.449 321.521 363.715 326.344 355.426 C330.194 352.859 331.929 353.593 336.344 354.426 C337.864 360.252 336.804 363.648 334.352 369.094 C330.6 377.775 332.09 386.397 335.023 395.125 C338.985 405.028 344.856 412.912 352.344 420.426 C352.984 421.09 353.625 421.754 354.285 422.438 C389.569 456.479 450.943 463.451 497.551 463.559 C500.344 463.426 500.344 463.426 503.344 462.426 C503.264 462.152 503.264 462.152 502.863 460.766 C501.632 455.222 501.279 449.433 503.969 444.363 C506.665 442.164 508.984 441.266 512.344 440.426 C512.586 441.021 512.828 441.617 513.078 442.23 C515.898 447.121 521.798 449.829 526.906 451.801 C527.711 452.007 528.515 452.213 529.344 452.426 C530.719 451.136 532.051 449.799 533.344 448.426 C533.344 447.766 533.344 447.106 533.344 446.426 C532.559 446.039 531.774 445.652 530.965 445.254 C528.794 444.178 526.629 443.09 524.469 441.992 C522.697 441.104 520.913 440.239 519.094 439.453 C515.394 437.739 513.759 435.92 512.281 432.238 C510.968 427.286 511.336 423.133 513.344 418.426 C515.656 415.301 515.656 415.301 518.344 413.426 C521.788 413.33 524.465 414.941 527.531 416.363 C533.597 419.153 539.677 420.426 546.344 420.426 C546.674 418.116 547.004 415.806 547.344 413.426 C546.805 413.285 546.266 413.144 545.711 412.999 C543.234 412.35 540.758 411.7 538.281 411.051 C537.434 410.829 536.586 410.607 535.713 410.379 C534.039 409.939 532.365 409.496 530.693 409.048 C529.214 408.656 527.731 408.277 526.244 407.917 C522.597 406.991 521.458 406.564 518.969 403.551 C515.865 397.582 515.375 391.882 517.406 385.363 C519.729 379.803 523.645 376.692 529.023 374.168 C531.446 373.187 533.871 372.271 536.344 371.426 C532.277 362.783 522.891 358.548 514.344 355.426 C502.855 351.701 491.106 349.536 479.177 347.769 C478.201 347.621 477.225 347.473 476.219 347.32 C475.35 347.195 474.481 347.07 473.586 346.941 C471.344 346.426 471.344 346.426 468.344 344.426 C467.145 341.259 467.179 339.853 468.406 336.676 C470.344 334.426 470.344 334.426 473.406 333.613 C475.05 333.508 476.697 333.426 478.344 333.426 C483.777 300.09 465.782 264.98 446.999 238.654 C429.241 214.323 406.907 194.626 380.314 180.479 C378.474 179.496 376.651 178.486 374.828 177.473 C301.04 137.532 200.544 128.996 93.525 152.445 C72.08 159.058 72.08 159.058 65.344 162.426 C62.469 162.738 62.469 162.738 59.344 162.426 C55.506 159.339 53.482 155.327 51.219 151.051 C44.122 138.098 35.581 127.032 25.344 116.426 C24.532 115.551 23.72 114.675 22.883 113.773 C5.476 95.493 -18.611 84.771 -43.152 80.164 C-45.873 79.362 -47.003 78.71 -48.656 76.426 C-49.885 65.57 -46.515 53.553 -40.656 44.426 C-37.471 40.669 -34.037 37.704 -29.656 35.426 C-25.906 35.488 -25.906 35.488 -22.656 36.426 C-20.656 39.426 -20.656 39.426 -20.656 41.801 C-21.823 44.865 -23.417 45.901 -25.961 47.855 C-31.86 53.32 -33.957 59.681 -34.656 67.426 C-30.911 68.63 -27.16 69.811 -23.406 70.988 C-22.343 71.331 -21.279 71.673 -20.184 72.025 C-19.159 72.344 -18.134 72.663 -17.078 72.992 C-16.135 73.291 -15.193 73.589 -14.222 73.897 C-11.551 74.447 -10.175 74.398 -7.656 73.426 C0.545 66.399 5.765 55.448 6.645 44.777 C6.683 32.583 5.431 25.637 -3.109 16.664 C-10.618 10.065 -18.659 8.057 -28.418 8.141 C-39.36 9.104 -47.93 14.997 -55.41 22.68 Z M-271.656 152.426 C-277.855 160.125 -279.692 168.688 -278.656 178.426 C-276.361 188.526 -271.366 195.308 -262.656 200.801 C-255.907 204.775 -249.398 205.771 -241.719 205.738 C-241.339 205.746 -241.339 205.746 -239.416 205.787 C-238.661 205.788 -237.907 205.788 -237.129 205.789 C-236.795 205.791 -236.795 205.791 -235.106 205.798 C-231.487 205.248 -228.083 203.711 -224.656 202.426 C-224.326 195.496 -223.996 188.566 -223.656 181.426 C-232.642 178.056 -232.642 178.056 -236.051 178.238 C-236.415 178.25 -236.415 178.25 -238.256 178.309 C-238.621 178.328 -238.621 178.328 -240.469 178.426 C-248.073 178.818 -248.073 178.818 -250.652 177.082 C-252.062 174.757 -251.924 173.099 -251.656 170.426 C-251.326 169.436 -250.996 168.446 -250.656 167.426 C-240.774 163.158 -229.517 165.106 -219.656 168.426 C-218.621 166.014 -217.603 163.598 -216.594 161.176 C-216.299 160.494 -216.005 159.812 -215.701 159.109 C-213.208 153.068 -213.208 153.068 -214.656 149.426 C-217.352 147.793 -217.352 147.793 -220.781 146.301 C-221.898 145.803 -223.014 145.306 -224.164 144.793 C-240.629 138.347 -258.631 139.532 -271.656 152.426 Z M522.344 293.426 C520.504 293.899 518.665 294.381 516.838 294.901 C511.75 295.971 506.519 295.628 501.344 295.551 C500.187 295.542 499.031 295.533 497.84 295.523 C495.008 295.5 492.176 295.467 489.344 295.426 C489.625 297.386 489.919 299.344 490.219 301.301 C490.381 302.391 490.544 303.482 490.711 304.605 C491.344 307.426 491.344 307.426 493.344 309.426 C503.617 311.659 514.467 311.04 524.344 307.426 C526.688 305.82 526.688 305.82 528.344 304.426 C528.079 300.631 527.457 298.591 525.281 295.426 C524.312 294.766 523.342 294.106 522.344 293.426 Z " fill="#415FF5" transform="translate(492.65625,452.57421875)"/>
<path d="M0 0 C3.826 0.547 4.586 1.534 7.062 4.438 C8.627 7.205 8.627 7.205 10.129 10.398 C10.692 11.583 11.255 12.767 11.835 13.987 C12.432 15.262 13.029 16.537 13.625 17.812 C14.865 20.434 16.11 23.053 17.355 25.672 C17.666 26.327 17.977 26.983 18.297 27.658 C21.681 34.782 25.245 41.814 28.862 48.822 C29.074 49.239 29.074 49.239 30.148 51.352 C30.334 51.712 30.334 51.712 31.275 53.538 C32.062 55.438 32.062 55.438 32.062 58.438 C35.363 55.347 37.256 51.696 39.375 47.75 C43.657 39.912 48.071 32.157 52.562 24.438 C53.174 23.381 53.785 22.324 54.415 21.236 C54.99 20.25 55.564 19.265 56.156 18.25 C56.669 17.37 57.181 16.489 57.709 15.582 C59.062 13.438 59.062 13.438 61.062 11.438 C64.438 11 64.438 11 68.062 11.438 C72.341 15.779 75.047 21.467 78 26.75 C81.553 33.074 85.167 39.317 89.062 45.438 C91.223 43.395 92.887 41.354 94.48 38.848 C94.926 38.151 95.372 37.454 95.832 36.737 C96.066 36.368 96.066 36.368 97.25 34.5 C98.233 32.968 99.216 31.437 100.199 29.906 C100.683 29.151 101.167 28.395 101.666 27.617 C103.619 24.57 105.581 21.529 107.562 18.5 C108.171 17.563 108.779 16.626 109.406 15.66 C111.635 12.669 113.3 11.551 117 11 C120.062 11.438 120.062 11.438 121.957 13.484 C124.42 16.939 126.643 20.482 128.812 24.125 C129.224 24.801 129.635 25.477 130.059 26.174 C133.062 31.189 133.062 31.189 133.062 33.438 C133.89 33.417 134.717 33.396 135.569 33.374 C139.317 33.291 143.064 33.239 146.812 33.188 C148.114 33.154 149.416 33.12 150.758 33.086 C152.008 33.073 153.259 33.06 154.547 33.047 C155.123 33.036 155.123 33.036 158.038 32.983 C161.711 33.535 162.86 34.498 165.062 37.438 C165.562 40.5 165.562 40.5 165.062 43.438 C162.67 45.945 161.219 46.418 157.75 46.842 C150.096 46.899 150.096 46.899 147.364 46.884 C145.135 46.875 142.91 46.904 140.682 46.936 C139.258 46.937 137.834 46.937 136.41 46.934 C135.121 46.935 133.832 46.937 132.504 46.939 C128.494 46.355 126.904 45.269 124.062 42.438 C122.113 39.457 122.113 39.457 120.375 36.25 C117.259 30.536 117.259 30.536 115.062 29.438 C114.838 30.096 114.614 30.755 114.383 31.434 C112.635 35.41 110.326 38.882 107.938 42.5 C107.449 43.246 106.961 43.991 106.457 44.76 C105.467 46.27 104.474 47.778 103.48 49.286 C102.188 51.247 100.907 53.214 99.629 55.184 C99.278 55.72 99.278 55.72 97.5 58.438 C96.88 59.386 96.26 60.335 95.621 61.312 C93.628 64.03 92.602 64.327 89.312 65 C84.938 64.243 84.273 62.535 81.779 59.047 C78.34 53.82 75.272 48.378 72.188 42.938 C71.493 41.721 70.797 40.505 70.102 39.289 C68.417 36.341 66.738 33.391 65.062 30.438 C62.813 33.298 61.019 36.199 59.312 39.41 C58.792 40.384 58.271 41.358 57.734 42.361 C57.182 43.397 56.631 44.433 56.062 45.5 C51.769 53.485 47.44 61.444 42.938 69.312 C42.489 70.108 42.04 70.903 41.578 71.723 C41.158 72.451 40.738 73.179 40.305 73.93 C39.942 74.562 39.58 75.195 39.207 75.847 C38.062 77.438 38.062 77.438 35.062 79.438 C32.188 79.562 32.188 79.562 29.062 78.438 C24.55 72.914 21.652 65.847 18.543 59.48 C18.04 58.456 17.536 57.431 17.017 56.375 C15.962 54.224 14.909 52.072 13.859 49.918 C12.245 46.614 10.62 43.316 8.994 40.018 C7.968 37.922 6.943 35.827 5.918 33.73 C5.431 32.743 4.943 31.755 4.441 30.738 C4.219 30.281 4.219 30.281 3.094 27.966 C2.701 27.161 2.307 26.357 1.902 25.529 C1.062 23.438 1.062 23.438 1.062 20.438 C0.403 20.438 -0.258 20.438 -0.938 20.438 C-1.177 21.411 -1.417 22.384 -1.664 23.387 C-2.979 27.974 -5.082 32.048 -7.312 36.25 C-7.506 36.631 -7.506 36.631 -8.484 38.561 C-8.676 38.925 -8.676 38.925 -9.648 40.77 C-9.992 41.427 -10.335 42.084 -10.689 42.761 C-12.329 44.963 -13.307 45.569 -15.938 46.438 C-18.825 46.642 -21.613 46.742 -24.5 46.738 C-25.328 46.743 -26.157 46.747 -27.01 46.751 C-28.758 46.757 -30.507 46.758 -32.255 46.753 C-34.928 46.75 -37.6 46.773 -40.273 46.799 C-41.974 46.801 -43.674 46.802 -45.375 46.801 C-46.173 46.81 -46.971 46.819 -47.793 46.829 C-51.082 46.801 -53.514 46.663 -56.445 45.102 C-57.938 43.438 -57.938 43.438 -58.375 40.438 C-57.938 37.438 -57.938 37.438 -56.562 35.625 C-53.085 33.084 -49.903 33.222 -45.742 33.121 C-45.035 33.1 -44.327 33.08 -43.598 33.058 C-41.337 32.993 -39.075 32.934 -36.812 32.875 C-35.28 32.832 -33.747 32.788 -32.215 32.744 C-28.456 32.637 -24.697 32.536 -20.938 32.438 C-20.718 32.006 -20.718 32.006 -19.608 29.823 C-17.976 26.616 -16.336 23.414 -14.694 20.212 C-13.984 18.827 -13.277 17.441 -12.573 16.054 C-11.558 14.058 -10.535 12.066 -9.512 10.074 C-9.199 9.455 -8.886 8.837 -8.564 8.199 C-4.686 0.698 -4.686 0.698 0 0 Z " fill="#415FF5" transform="translate(770.9375,451.5625)"/>
<path d="M0 0 C1.723 1.281 1.723 1.281 3 3 C3 11.417 -0.202 19.165 -3 27 C-2.313 27.104 -1.626 27.209 -0.918 27.316 C2.533 28.125 5.476 29.44 8.688 30.938 C9.826 31.462 10.964 31.987 12.137 32.527 C15 34 15 34 17 36 C17.55 42.052 17.55 42.052 15.875 44.938 C13.081 46.521 11.205 46.268 8 46 C5.109 45.04 2.382 43.791 -0.375 42.5 C-1.111 42.166 -1.847 41.832 -2.605 41.488 C-4.408 40.669 -6.205 39.836 -8 39 C-8.182 39.629 -8.364 40.258 -8.551 40.906 C-9.345 43.611 -10.168 46.306 -11 49 C-11.228 49.772 -11.456 50.544 -11.691 51.34 C-12.776 54.669 -13.746 56.772 -16.375 59.125 C-19 60 -19 60 -21.688 59.312 C-24 58 -24 58 -26 56 C-25.863 47.78 -22.923 40.583 -20 33 C-20.675 32.897 -21.351 32.794 -22.047 32.688 C-25.635 31.852 -28.892 30.477 -32.25 29 C-32.887 28.727 -33.524 28.453 -34.18 28.172 C-38.859 26.141 -38.859 26.141 -40 25 C-40.583 17.77 -40.583 17.77 -38.438 14.938 C-33.33 12.973 -28.184 15.123 -23.408 17.221 C-22.799 17.498 -22.19 17.776 -21.562 18.062 C-20.926 18.344 -20.29 18.626 -19.635 18.916 C-18.086 19.603 -16.543 20.3 -15 21 C-14.752 19.742 -14.505 18.484 -14.25 17.188 C-13.016 11.645 -11.364 6.171 -9 1 C-5.95 -0.525 -3.358 -0.236 0 0 Z " fill="#415FF5" transform="translate(463,588)"/>
<path d="M0 0 C3.625 0.25 3.625 0.25 5.562 1.312 C7.451 4.757 7.011 8.559 6.152 12.32 C5.523 14.461 4.84 16.574 4.125 18.688 C3.887 19.419 3.648 20.151 3.402 20.904 C2.819 22.689 2.223 24.47 1.625 26.25 C2.254 26.42 2.883 26.59 3.531 26.766 C16.936 30.561 16.936 30.561 21.625 35.25 C22.295 41.392 22.295 41.392 20.062 44.25 C12.834 47.216 4.296 41.969 -2.375 39.25 C-2.458 39.517 -2.458 39.517 -2.878 40.871 C-3.637 43.292 -4.412 45.709 -5.188 48.125 C-5.449 48.967 -5.71 49.809 -5.979 50.676 C-6.24 51.481 -6.501 52.287 -6.77 53.117 C-6.887 53.489 -6.887 53.489 -7.484 55.371 C-8.375 57.25 -8.375 57.25 -11.375 59.25 C-15.45 59.59 -16.905 59.563 -20.375 57.25 C-21.579 54.239 -21.351 52.289 -20.379 49.246 C-20.265 48.876 -20.265 48.876 -19.686 47.002 C-19.562 46.62 -19.562 46.62 -18.938 44.688 C-18.456 43.166 -17.978 41.644 -17.504 40.121 C-17.288 39.45 -17.072 38.779 -16.85 38.088 C-16.375 36.25 -16.375 36.25 -16.375 33.25 C-17.495 32.852 -18.615 32.453 -19.77 32.043 C-21.242 31.508 -22.715 30.973 -24.188 30.438 C-24.925 30.176 -25.663 29.915 -26.424 29.646 C-27.136 29.385 -27.848 29.124 -28.582 28.855 C-29.237 28.62 -29.891 28.384 -30.566 28.141 C-32.671 27.104 -33.915 26.087 -35.375 24.25 C-36.031 18.13 -36.031 18.13 -34.094 15.531 C-31.516 13.61 -29.191 14.151 -26.137 14.59 C-20.683 15.894 -15.537 18.088 -10.375 20.25 C-10.326 19.941 -10.326 19.941 -10.078 18.379 C-6.924 0.513 -6.924 0.513 0 0 Z " fill="#415FF5" transform="translate(343.375,644.75)"/>
<path d="M0 0 C7.09 5.652 10.771 11.859 12.043 20.793 C12.458 27.589 10.443 32.73 6.695 38.352 C2.869 42.276 -1.092 44.254 -6.629 44.422 C-13.722 44.053 -18.659 41.798 -23.805 36.934 C-29.29 30.845 -31.669 23.446 -31.305 15.352 C-29.937 8.685 -27.649 3.515 -22.086 -0.562 C-14.998 -4.883 -7.005 -4.529 0 0 Z M-15.555 11.914 C-17.971 15.279 -17.796 17.28 -17.305 21.352 C-15.755 25.38 -14.277 28.422 -10.305 30.352 C-7.18 30.227 -7.18 30.227 -4.305 29.352 C-1.835 25.647 -1.63 22.649 -2.305 18.352 C-4.32 14.599 -5.759 12.715 -9.305 10.352 C-13.305 10.352 -13.305 10.352 -15.555 11.914 Z " fill="#415FF5" transform="translate(485.3046875,729.6484375)"/>
<path d="M0 0 C6.967 4.017 11.628 10.737 13.75 18.438 C14.701 25.793 14.368 32.41 9.75 38.438 C5.469 42.884 1.904 45.553 -4.438 45.688 C-11.156 45.568 -16.053 43.861 -21 39.25 C-26.477 33.335 -28.899 27.087 -29.5 19.125 C-29.062 12.668 -26.952 7.012 -22.25 2.438 C-15.45 -2.374 -7.697 -3.393 0 0 Z M-14.188 13.875 C-15.838 17.855 -15.314 21.322 -14.25 25.438 C-12.625 28.438 -12.625 28.438 -10.25 30.438 C-6.688 31.438 -6.688 31.438 -3.25 31.438 C-1.17 29.909 -0.375 28.937 0.254 26.422 C0.372 21.904 -0.056 19.008 -2.875 15.375 C-5.211 13 -6.073 12.476 -9.438 11.75 C-12.25 12.438 -12.25 12.438 -14.188 13.875 Z " fill="#415FF5" transform="translate(301.25,800.5625)"/>
</svg>
